<svg width="48" height="51" viewBox="0 0 48 51" fill="none" xmlns="http://www.w3.org/2000/svg">
<g clip-path="url(#clip0_1_72)">
<path d="M0.181641 8.54157L23.3082 0.301697L47.0574 8.39508L43.2121 38.9925L23.3082 50.0156L3.71563 39.139L0.181641 8.54157Z" fill="#E23237"/>
<path d="M47.0574 8.39508L23.3082 0.301697L23.3082 50.0156L43.2121 39.0108L47.0574 8.39508Z" fill="#B52E31"/>
<path d="M23.3448 6.1062L8.9342 38.1685L14.3176 38.0769L17.2107 30.8441L23.3631 30.8441L23.3814 30.8441L30.1381 30.8441L33.3059 38.1685L38.4513 38.26L23.3448 6.1062ZM23.3814 16.3786L28.2521 26.5594L23.5829 26.5594L23.3448 26.5594L19.0967 26.5594L23.3814 16.3786Z" fill="white"/>
</g>
<defs>
<clipPath id="clip0_1_72">
<rect width="47.0588" height="50" fill="white" transform="translate(0 0.327881) rotate(-0.375706)"/>
</clipPath>
</defs>
</svg>
