<svg width="62" height="50" viewBox="0 0 62 50" fill="none" xmlns="http://www.w3.org/2000/svg">
<g clip-path="url(#clip0_38_33)">
<path fill-rule="evenodd" clip-rule="evenodd" d="M12.9815 0C9.41526 0 6.77648 3.1213 6.89461 6.50635C7.00794 9.75846 6.8607 13.9703 5.80031 17.4052C4.73677 20.85 2.93802 23.0323 0 23.3125V26.4755C2.93802 26.7557 4.73677 28.938 5.80031 32.3831C6.8607 35.8177 7.00794 40.0297 6.89461 43.2818C6.77648 46.6664 9.41526 49.788 12.982 49.788H49.5232C53.0896 49.788 55.7279 46.6669 55.6096 43.2818C55.4964 40.0297 55.6435 35.8177 56.7039 32.3831C57.768 28.938 59.562 26.7557 62.5 26.4755V23.3125C59.562 23.0323 57.768 20.85 56.7039 17.4052C55.6435 13.9709 55.4964 9.75846 55.6096 6.50635C55.7279 3.12182 53.0896 0 49.5232 0H12.9815ZM42.3729 30.6477C42.3729 35.3089 38.8961 38.1357 33.1266 38.1357H23.3051C23.0241 38.1357 22.7547 38.024 22.556 37.8253C22.3574 37.6266 22.2458 37.3573 22.2458 37.0763V12.7119C22.2458 12.4309 22.3574 12.1615 22.556 11.9628C22.7547 11.7641 23.0241 11.6526 23.3051 11.6526H33.0706C37.8812 11.6526 41.0385 14.2585 41.0385 18.2595C41.0385 21.0677 38.9148 23.582 36.2086 24.0221V24.169C39.8924 24.5732 42.3729 27.124 42.3729 30.6477ZM32.0557 15.0106H26.4555V22.9206H31.1721C34.8182 22.9206 36.8289 21.4523 36.8289 18.8279C36.8289 16.3686 35.1 15.0106 32.0557 15.0106ZM26.4555 26.0594V34.7766H32.2617C36.0578 34.7766 38.0687 33.2531 38.0687 30.3904C38.0687 27.5271 36.0016 26.0589 32.0174 26.0589L26.4555 26.0594Z" fill="#7E11F9"/>
</g>
<defs>
<clipPath id="clip0_38_33">
<rect width="61.25" height="50" fill="white"/>
</clipPath>
</defs>
</svg>
