<svg width="50" height="50" viewBox="0 0 50 50" fill="none" xmlns="http://www.w3.org/2000/svg">
<path d="M25 21.5922L42.1078 25.8406C45.0859 24.675 46.875 23.1969 46.875 21.5922V14.7578C46.875 10.9937 37.0781 7.93124 25 7.93124C12.9219 7.93124 3.125 10.9922 3.125 14.7578V21.5937C3.125 25.3609 12.9172 28.4203 25 28.4203V21.5922Z" fill="#D33E44"/>
<path d="M42.1062 25.8406L25 21.5906V28.4188L42.1078 32.6688C45.0844 31.5 46.875 30.025 46.875 28.4188V21.5906C46.875 23.1969 45.0844 24.6735 42.1062 25.8406Z" fill="white"/>
<path d="M3.125 21.5906V28.4188C3.125 32.1859 12.9172 35.2406 25 35.2406V28.4188C12.9172 28.4188 3.125 25.3563 3.125 21.5906Z" fill="white"/>
<path d="M42.1062 32.6688L25 28.4188V35.2469L42.1078 39.4969C45.0844 38.3297 46.875 36.8531 46.875 35.2469V28.4188C46.875 30.025 45.0844 31.5016 42.1062 32.6688Z" fill="#D33E44"/>
<path d="M3.125 28.4188V35.2469C3.125 39.0141 12.9172 42.0688 25 42.0688V35.2469C12.9172 35.2469 3.125 32.1875 3.125 28.4188Z" fill="#D33E44"/>
</svg>
