<svg width="45" height="50" viewBox="0 0 45 50" fill="none" xmlns="http://www.w3.org/2000/svg">
<g clip-path="url(#clip0_33_17)">
<path d="M22.1951 49.8433L4.10792 44.8739L0.0772705 0.131592H44.3671L40.3322 44.8669L22.1951 49.8433Z" fill="#264DE4"/>
<path d="M36.8779 42.0183L40.326 3.78992H22.2222V46.0396L36.8779 42.0183Z" fill="#2965F1"/>
<path d="M9.31744 20.3842L9.81439 25.8716H22.2222V20.3842H9.31744Z" fill="#EBEBEB"/>
<path d="M8.31891 9.27747L8.82294 14.765H22.2222V9.27747H8.31891Z" fill="#EBEBEB"/>
<path d="M22.2222 34.6358L22.1979 34.6422L16.0228 32.992L15.6281 28.6155H10.0621L10.8389 37.2316L22.1967 40.3521L22.2222 40.3451V34.6358Z" fill="#EBEBEB"/>
<path d="M35.0914 20.3842L36.0924 9.27747H22.203V14.765H30.016L29.5115 20.3842H22.203V25.8716H29.0306L28.387 32.9885L22.203 34.6404V40.3494L33.5698 37.2316L33.6532 36.3045L34.9561 21.8578L35.0914 20.3842Z" fill="white"/>
</g>
<defs>
<clipPath id="clip0_33_17">
<rect width="44.4444" height="50" fill="white"/>
</clipPath>
</defs>
</svg>
