<svg width="50" height="50" viewBox="0 0 50 50" fill="none" xmlns="http://www.w3.org/2000/svg">
<path d="M32.2281 16.8L38.125 12.1125L37.0875 10.8188C34.7334 8.76634 31.8991 7.34165 28.8475 6.6768C25.7959 6.01196 22.6258 6.12851 19.6313 7.01563C16.6483 7.91671 13.9429 9.56037 11.7686 11.7926C9.59431 14.0248 8.02235 16.7725 7.20001 19.7781C7.10626 20.1313 8.17501 19.4719 8.64688 19.6031L16.7969 18.2656C16.7969 18.2656 17.1938 17.8781 17.425 17.625C21.05 13.6688 27.1938 13.15 31.3781 16.5188L32.2281 16.8Z" fill="#EA4335"/>
<path d="M42.6156 19.6875C41.6768 16.2548 39.7541 13.1719 37.0844 10.8188L31.3656 16.5063C32.5547 17.471 33.5085 18.6939 34.1544 20.0822C34.8004 21.4705 35.1216 22.9878 35.0937 24.5188V25.5281C37.9062 25.5281 40.1875 27.7938 40.1875 30.5906C40.1875 33.3813 37.9062 35.65 35.0937 35.65L24.9156 35.6406L23.9 35.75V43.5844L24.9156 43.75H35.0937C37.9305 43.7778 40.701 42.8932 42.9967 41.2266C45.2924 39.5599 46.9916 37.1996 47.8437 34.4938C48.685 31.7917 48.6302 28.8901 47.6874 26.2217C46.7446 23.5534 44.9645 21.2613 42.6125 19.6875H42.6156Z" fill="#4285F4"/>
<path d="M14.7219 43.7469H24.9062V35.6406H14.7187C13.9937 35.6406 13.2781 35.4344 12.6187 35.1375L11.1875 35.575L7.08437 39.6281L6.72812 41.025C9.0256 42.7752 11.8306 43.7296 14.7187 43.7438L14.7219 43.7469Z" fill="#34A853"/>
<path d="M14.7219 17.4125C11.9695 17.4239 9.28924 18.2934 7.05432 19.8999C4.8194 21.5064 3.14109 23.7698 2.25312 26.375C1.37452 28.9786 1.334 31.792 2.13725 34.4198C2.9405 37.0476 4.54712 39.3576 6.73125 41.025L12.6375 35.1375C11.634 34.69 10.8036 33.9276 10.2723 32.9658C9.74097 32.0041 9.53763 30.8953 9.69307 29.8076C9.84851 28.7198 10.3543 27.7124 11.1337 26.9379C11.9131 26.1634 12.9238 25.6641 14.0125 25.5156C15.1014 25.3594 16.2117 25.5599 17.1772 26.0872C18.1427 26.6144 18.9115 27.4401 19.3687 28.4406L25.275 22.5719C24.0307 20.958 22.4309 19.6529 20.6 18.7581C18.7692 17.8633 16.7597 17.4028 14.7219 17.4125Z" fill="#FBBC05"/>
</svg>
