<svg width="50" height="50" viewBox="0 0 50 50" fill="none" xmlns="http://www.w3.org/2000/svg">
<path d="M25 2.14844C12.0594 2.14844 1.56876 12.6391 1.56876 25.5797C1.56876 35.8688 8.20157 44.6109 17.425 47.7594L17.5906 47.8078C18.7625 48.0281 19.1922 47.3047 19.1922 46.6813C19.1922 46.125 19.1734 44.65 19.1625 42.6984C12.6453 44.1125 11.2703 39.5547 11.2703 39.5547C10.8203 38.1094 9.89844 36.9219 8.68751 36.1422L8.66251 36.1281C6.54063 34.675 8.82657 34.7047 8.82657 34.7047C10.3688 34.9219 11.6609 35.8266 12.4031 37.0953L12.4156 37.1188C13.2813 38.6734 14.9156 39.7078 16.7922 39.7078C17.6922 39.7078 18.5359 39.4703 19.2641 39.0531L19.2391 39.0656C19.3516 37.8297 19.8969 36.7391 20.7219 35.9328L20.7234 35.9313C15.5203 35.3453 10.05 33.3297 10.05 24.3531C10.05 24.3109 10.0484 24.2625 10.0484 24.2141C10.0484 21.8375 10.9656 19.675 12.4656 18.0609L12.4609 18.0672C12.1438 17.2203 11.9594 16.2422 11.9594 15.2219C11.9594 14.0078 12.2188 12.8531 12.6859 11.8125L12.6641 11.8656C12.6641 11.8656 14.6266 11.2375 19.1078 14.2672C20.8641 13.7656 22.8813 13.4766 24.9656 13.4766C27.05 13.4766 29.0672 13.7656 30.9797 14.3047L30.8234 14.2672C35.275 11.2375 37.2375 11.8656 37.2375 11.8656C37.6828 12.8688 37.9422 14.0375 37.9422 15.2672C37.9422 16.2703 37.7703 17.2328 37.4531 18.1266L37.4719 18.0672C38.9609 19.6797 39.875 21.8422 39.875 24.2188C39.875 24.2672 39.875 24.3141 39.8734 24.3609V24.3531C39.8734 33.3547 34.3969 35.3359 29.1828 35.9125C30.1703 36.9234 30.7797 38.3063 30.7797 39.8328C30.7797 39.9781 30.7734 40.1234 30.7625 40.2672L30.7641 40.2484C30.7641 43.3844 30.7344 45.9031 30.7344 46.6641C30.7344 47.2797 31.1438 48.0109 32.3453 47.7766C41.7641 44.6063 48.4266 35.8563 48.4266 25.5484C48.4266 12.6234 37.9484 2.14688 25.025 2.14688C25.0156 2.14688 25.0047 2.14688 24.9953 2.14688H24.9969L25 2.14844Z" fill="black"/>
</svg>
