<svg width="44" height="50" viewBox="0 0 44 50" fill="none" xmlns="http://www.w3.org/2000/svg">
<g clip-path="url(#clip0_33_2)">
<path d="M3.98836 44.883L0 0.145813H43.8053L39.8121 44.8865L21.892 49.8542L3.98836 44.883Z" fill="#E34E26"/>
<path d="M21.9026 3.80261V46.0542L36.3932 42.0374L39.8073 3.80261H21.9026Z" fill="#EF662A"/>
<path d="M8.16025 9.29004L9.63924 25.8828H28.6571L28.0189 32.9997L21.8956 34.6552L15.7838 33.0021L15.3752 28.4324H9.86755L10.6551 37.2415L21.8943 40.363L33.1476 37.2415L34.6563 20.3965H14.6577L14.1555 14.7775H35.1368H35.1535L35.6451 9.29004H8.16025Z" fill="white"/>
<path d="M21.9027 9.29004H8.16025L9.63924 25.8828H21.9027V20.3965H14.6577L14.1555 14.7775H21.9027V9.29004Z" fill="#EBEBEB"/>
<path d="M21.9027 34.6528L21.8956 34.6552L15.7839 33.0021L15.3752 28.4324H9.86755L10.6551 37.2415L21.8943 40.363L21.9027 40.3606V34.6528Z" fill="#EBEBEB"/>
</g>
<defs>
<clipPath id="clip0_33_2">
<rect width="43.8053" height="50" fill="white"/>
</clipPath>
</defs>
</svg>
