<svg width="50" height="50" viewBox="0 0 50 50" fill="none" xmlns="http://www.w3.org/2000/svg">
<g clip-path="url(#clip0_1_100)">
<path d="M0 0L50 0V50H0L0 0Z" fill="#F7DF1E"/>
<path d="M13.1468 41.7836L16.9732 39.468C17.7114 40.7768 18.3829 41.8842 19.9936 41.8842C21.5376 41.8842 22.511 41.2802 22.511 38.931V22.9548H27.2097V38.9975C27.2097 43.8641 24.357 46.0793 20.195 46.0793C16.4362 46.0793 14.2543 44.1325 13.1468 41.7832" fill="black"/>
<path d="M29.7619 41.2802L33.5878 39.065C34.5949 40.7098 35.9039 41.918 38.2196 41.918C40.1665 41.918 41.408 40.9446 41.408 39.602C41.408 37.991 40.1327 37.4203 37.9846 36.4809L36.8102 35.9771C33.4202 34.5342 31.1713 32.7218 31.1713 28.8955C31.1713 25.3714 33.8563 22.6862 38.0519 22.6862C41.039 22.6862 43.1871 23.7268 44.7308 26.4454L41.0724 28.7947C40.2668 27.3516 39.3944 26.7811 38.052 26.7811C36.6759 26.7811 35.8032 27.6538 35.8032 28.7947C35.8032 30.2044 36.6759 30.7751 38.6894 31.6478L39.864 32.1512C43.8581 33.863 46.1069 35.6081 46.1069 39.5349C46.1069 43.7641 42.7842 46.0797 38.3204 46.0797C33.9572 46.0797 31.1378 43.9989 29.7619 41.2802Z" fill="black"/>
</g>
<defs>
<clipPath id="clip0_1_100">
<rect width="50" height="50" fill="white"/>
</clipPath>
</defs>
</svg>
