<svg width="50" height="50" viewBox="0 0 50 50" fill="none" xmlns="http://www.w3.org/2000/svg">
<path d="M42.8342 24.714C42.8342 22.4256 41.0812 20.5003 38.7276 19.9502L43.9987 6H17.8762L23.1595 19.9942C20.8795 20.5883 19.2001 22.4806 19.2001 24.725C19.2001 26.3752 20.1194 27.8384 21.5169 28.7406C20.9653 29.4447 20.3278 30.0938 19.6046 30.7099C18.2439 31.8541 16.7361 32.7342 15.1058 33.3173C13.6348 32.4262 12.9973 30.8529 13.5735 29.4447C15.8168 28.8286 17.4471 26.9473 17.4471 24.736C17.4471 22.0185 14.9832 19.8182 11.9676 19.8182C8.93981 19.8182 6.47588 22.0295 6.47588 24.747C6.47588 26.0892 7.0888 27.3214 8.06947 28.2015C7.98366 28.3555 7.89785 28.5096 7.81204 28.6746C6.99073 30.1928 6.0591 31.9091 5.7036 33.8344C4.99262 37.685 6.15716 40.7765 8.96433 42.5258C10.5457 43.5049 12.2863 44 14.1619 44C17.3858 44 20.6588 42.5478 23.8215 41.1395C26.077 40.1384 28.4061 39.0932 30.6984 38.5871C31.5442 38.4001 32.4268 38.2901 33.3585 38.1691C35.2463 37.927 37.1953 37.674 38.9483 36.7609C40.9954 35.6937 42.3929 33.9114 42.7974 31.8651C43.1039 30.2918 42.7974 28.7076 42.0129 27.3214C42.54 26.5622 42.8342 25.6711 42.8342 24.714ZM40.4438 24.714C40.4438 26.2432 39.0586 27.4864 37.3547 27.4864C35.6508 27.4864 34.2656 26.2432 34.2656 24.714C34.2656 24.2189 34.4127 23.7458 34.6701 23.3387C34.7682 23.1847 34.8908 23.0307 35.0134 22.8987C35.1359 22.7666 35.283 22.6456 35.4424 22.5356L35.4547 22.5246C35.5527 22.4586 35.663 22.3926 35.7734 22.3266C35.7734 22.3266 35.7856 22.3266 35.7856 22.3156C35.8347 22.2936 35.8837 22.2606 35.9327 22.2386C35.945 22.2386 35.9572 22.2276 35.9695 22.2276C36.0185 22.2056 36.0798 22.1836 36.1411 22.1616C36.2024 22.1395 36.2637 22.1175 36.3127 22.0955C36.325 22.0955 36.3373 22.0845 36.3495 22.0845C36.3985 22.0735 36.4476 22.0515 36.4966 22.0405C36.5089 22.0405 36.5334 22.0295 36.5456 22.0295C36.6069 22.0185 36.656 22.0075 36.7173 21.9965H36.7295L36.9134 21.9635C36.9257 21.9635 36.9502 21.9635 36.9624 21.9525C37.0115 21.9525 37.0605 21.9415 37.1095 21.9415H37.1708C37.2321 21.9415 37.2934 21.9305 37.367 21.9305H37.5263C37.5753 21.9305 37.6121 21.9305 37.6612 21.9415H37.6857C37.7837 21.9525 37.8818 21.9635 37.9799 21.9855C39.3773 22.2496 40.4438 23.3717 40.4438 24.714ZM21.2962 8.20035H40.5787L36.1534 19.9172C35.9695 19.9502 35.7856 20.0052 35.6018 20.0602L30.9436 11.5339L26.2731 20.0052C26.0893 19.9502 25.8931 19.9172 25.697 19.8842L21.2962 8.20035ZM30.061 23.7568C29.8281 22.7226 29.2397 21.7985 28.4061 21.1164L30.9436 16.5177L33.5056 21.2154C32.7456 21.8975 32.1939 22.7666 31.9733 23.7568H30.061ZM23.9195 22.0185C23.9808 22.0075 24.0299 21.9965 24.0911 21.9855H24.1279C24.177 21.9745 24.226 21.9745 24.275 21.9635H24.3241C24.3731 21.9635 24.4099 21.9525 24.4589 21.9525H24.937C24.986 21.9525 25.0228 21.9635 25.0596 21.9635C25.0841 21.9635 25.0963 21.9635 25.1209 21.9745C25.1699 21.9855 25.2067 21.9855 25.2557 21.9965C25.268 21.9965 25.2802 21.9965 25.3047 22.0075C25.366 22.0185 25.4273 22.0295 25.4763 22.0405H25.4886C25.5376 22.0515 25.5867 22.0625 25.6357 22.0845C25.648 22.0845 25.6602 22.0955 25.6847 22.0955C25.7215 22.1065 25.7705 22.1175 25.8073 22.1395C25.8196 22.1395 25.8318 22.1506 25.8441 22.1506C25.8931 22.1726 25.9422 22.1836 25.9912 22.2056H26.0035C26.0647 22.2276 26.1138 22.2496 26.1628 22.2826H26.1751C26.2241 22.3046 26.2731 22.3376 26.3222 22.3596C26.3344 22.3596 26.3344 22.3706 26.3467 22.3706C26.3957 22.3926 26.4325 22.4256 26.4815 22.4476L26.4938 22.4586C26.6409 22.5576 26.7757 22.6676 26.9106 22.7776L26.9228 22.7887C27.0454 22.9097 27.168 23.0417 27.2661 23.1847C27.5848 23.6248 27.7687 24.1419 27.7687 24.703C27.7687 26.2322 26.3835 27.4754 24.6796 27.4754C22.9756 27.4754 21.5904 26.2322 21.5904 24.703C21.5782 23.4158 22.5711 22.3266 23.9195 22.0185ZM11.8573 21.9415C13.5612 21.9415 14.9464 23.1847 14.9464 24.714C14.9464 26.2432 13.5612 27.4864 11.8573 27.4864C10.1534 27.4864 8.7682 26.2432 8.7682 24.714C8.7682 23.1847 10.1534 21.9415 11.8573 21.9415ZM40.3703 31.48C40.1006 32.8882 39.1322 34.1204 37.7102 34.8576C36.374 35.5507 34.7314 35.7707 33.003 35.9907C32.0591 36.1118 31.0662 36.2438 30.11 36.4528C27.5603 37.0139 25.1086 38.1141 22.7305 39.1702C19.6904 40.5235 16.8219 41.7997 14.1619 41.7997C12.7767 41.7997 11.5386 41.4476 10.3618 40.7105C7.66494 39.0382 7.79979 35.9027 8.1185 34.1865C8.4127 32.5802 9.23401 31.073 10.0185 29.6317C10.0676 29.5437 10.1044 29.4667 10.1534 29.3787C10.4231 29.4667 10.705 29.5327 10.9992 29.5767C10.5334 31.9091 11.8573 34.3185 14.4316 35.5067L14.8974 35.7267L15.4 35.5617C17.5452 34.8796 19.531 33.7684 21.284 32.2832C22.2769 31.447 23.1227 30.5449 23.8337 29.5657C24.1157 29.6097 24.3976 29.6207 24.6796 29.6207C27.2293 29.6207 29.3745 28.0475 29.9874 25.9351H32.0468C32.6597 28.0585 34.805 29.6207 37.3547 29.6207C38.3721 29.6207 39.316 29.3677 40.1251 28.9386C40.4438 29.7638 40.5419 30.6219 40.3703 31.48Z" fill="#BC1224"/>
</svg>
