<svg width="50" height="50" viewBox="0 0 50 50" fill="none" xmlns="http://www.w3.org/2000/svg">
<g clip-path="url(#clip0_38_28)">
<path d="M3.19844 12.239C-1.22813 18.5953 -0.675002 26.8547 2.70156 33.6015C2.78281 33.7718 2.86406 33.9265 2.94531 34.0812C2.99375 34.1875 3.05156 34.2922 3.10781 34.3906C3.13281 34.4469 3.17344 34.5125 3.20625 34.5609C3.2625 34.675 3.32031 34.7719 3.37656 34.8781L3.70156 35.4312C3.75781 35.5375 3.82344 35.6343 3.88906 35.7328C4.00312 35.9281 4.14062 36.1234 4.25469 36.3187C4.31094 36.4 4.36094 36.4812 4.41719 36.5625C4.62031 36.8797 4.84062 37.189 5.06875 37.4906C5.23125 37.7109 5.39375 37.9297 5.56562 38.15C5.62187 38.2234 5.6875 38.3047 5.74531 38.3859L6.20937 38.9469C6.26562 39.0125 6.31562 39.0859 6.37969 39.15C6.58281 39.3937 6.80312 39.639 7.01406 39.875C7.01406 39.8828 7.02187 39.8828 7.02187 39.8906C7.29062 40.225 7.58281 40.5328 7.90937 40.8109C8.07969 40.9812 8.24375 41.1531 8.42187 41.3156L8.63281 41.5187C8.86094 41.739 9.08906 41.95 9.33281 42.1609C9.34062 42.1609 9.34062 42.1609 9.34844 42.1687L9.4625 42.2672C9.67344 42.4547 9.89375 42.6422 10.1141 42.8125L10.375 43.0328C10.5453 43.1719 10.7328 43.3093 10.9125 43.4484L11.1969 43.6687C11.3922 43.8156 11.5953 43.9531 11.7906 44.1C11.8641 44.1484 11.9375 44.2062 12.0187 44.2469L12.075 44.2953L12.6609 44.6859L12.9125 44.8484C13.2141 45.0437 13.5234 45.2312 13.8234 45.4187C13.9125 45.4594 13.9937 45.5078 14.075 45.5578C14.3031 45.6875 14.5391 45.8187 14.7672 45.9406C14.8891 46.014 15.0187 46.0703 15.15 46.1359C15.3047 46.225 15.4672 46.3062 15.6297 46.3969C15.6703 46.4047 15.7109 46.4219 15.7516 46.4453C15.8172 46.4781 15.8812 46.5109 15.9469 46.5437C16.1984 46.6656 16.4594 46.7875 16.7281 46.9015C16.7766 46.9265 16.8344 46.9422 16.8906 46.975C17.1922 47.1047 17.4844 47.2359 17.8016 47.3578C17.8672 47.3734 17.9406 47.414 18.0125 47.439C18.2969 47.5453 18.5906 47.65 18.875 47.7562L18.9734 47.789C19.2984 47.9031 19.6078 48 19.9344 48.1062C20.0078 48.1219 20.0891 48.1547 20.1625 48.1719C20.4969 48.2781 20.8141 48.3922 21.1469 48.4562C42.525 52.3547 48.7344 35.6062 48.7344 35.6062C43.5172 42.4015 34.2562 44.1922 25.4844 42.1984C25.1594 42.125 24.8422 42.0187 24.5078 41.9219C24.1172 41.8078 23.7187 41.6781 23.3281 41.5469L23.1984 41.4984C22.9219 41.4 22.6453 41.2953 22.3687 41.189C22.2953 41.1562 22.2141 41.1328 22.1406 41.1C21.8312 40.9781 21.5391 40.8562 21.2375 40.725C21.1719 40.7 21.1234 40.6687 21.0578 40.6437C20.8062 40.5297 20.5531 40.4156 20.3016 40.2937C20.2281 40.2609 20.1547 40.2203 20.0812 40.1797C19.8859 40.0906 19.6906 39.9844 19.4953 39.8859C19.3656 39.8203 19.2344 39.7562 19.1125 39.6906C18.8766 39.5609 18.6406 39.4297 18.4047 39.3C18.3312 39.2515 18.25 39.2015 18.1687 39.1609C17.8594 38.9734 17.5578 38.7859 17.2578 38.6C17.1766 38.5515 17.0953 38.4937 17.0141 38.4375C16.7937 38.2984 16.575 38.1531 16.3625 38.0062C16.2891 37.9578 16.2234 37.9078 16.1516 37.8515C15.9406 37.7125 15.7359 37.5672 15.5328 37.4125C15.4437 37.339 15.3531 37.2734 15.2562 37.2015C15.0766 37.0625 14.8906 36.925 14.7109 36.7703L14.4594 36.575C14.2234 36.3875 13.9953 36.1922 13.7672 35.989C13.7422 35.964 13.7187 35.9484 13.6859 35.9234L12.9703 35.2718L12.7594 35.0765C12.5891 34.8968 12.4172 34.7344 12.2391 34.564L12.0359 34.3531C11.8156 34.1328 11.6047 33.914 11.3937 33.6781L11.3609 33.6453C11.1406 33.4094 10.9297 33.1562 10.7094 32.9125C10.6531 32.8468 10.6031 32.7734 10.5469 32.7094L10.075 32.1312C9.83125 31.8218 9.59531 31.5125 9.36719 31.1953C4.5 24.5547 2.74219 15.3906 6.63281 7.87185L3.19844 12.239ZM16.9187 6.88435C13.7125 11.4906 13.8906 17.6422 16.3891 22.5094C16.8047 23.3234 17.2766 24.1125 17.7969 24.8687C18.2766 25.5531 18.8062 26.3656 19.4484 26.9203C19.6687 27.1719 19.9125 27.4172 20.1641 27.6687L20.3516 27.8562C20.5875 28.0843 20.8312 28.3125 21.0844 28.5312L21.1172 28.564C21.3937 28.8078 21.6781 29.0437 21.9797 29.2718C22.0453 29.3203 22.1094 29.3781 22.175 29.4265C22.4687 29.6469 22.7609 29.8656 23.0625 30.0781L23.0953 30.1031C23.225 30.1922 23.3641 30.2828 23.5109 30.3719C23.5672 30.4125 23.6328 30.4609 23.6984 30.4937C23.9187 30.6406 24.1375 30.7703 24.3578 30.9093C24.3984 30.925 24.4234 30.9422 24.4562 30.9578C24.6437 31.0719 24.8547 31.1781 25.05 31.2828C25.1156 31.3234 25.1797 31.3562 25.2531 31.3969C25.3922 31.4625 25.5297 31.5359 25.6594 31.6078L25.7328 31.6328C26.0094 31.7719 26.2937 31.9015 26.5797 32.0312C26.6531 32.0562 26.7094 32.0797 26.775 32.1125C27.0031 32.2109 27.2391 32.3078 27.4672 32.3968C27.5734 32.4297 27.6703 32.4703 27.7687 32.5031C27.9797 32.5844 28.2078 32.6578 28.4203 32.7312L28.7047 32.8203C29.0141 32.9187 29.3234 33.0406 29.6406 33.089C46.1453 35.8234 49.9609 23.1203 49.9609 23.1203C46.5187 28.0687 39.8703 30.4281 32.7734 28.589C32.4562 28.5078 32.1469 28.4094 31.8375 28.3125C31.7391 28.2875 31.65 28.2562 31.5531 28.2312C31.3422 28.15 31.1141 28.0765 30.9109 28.0031L30.6094 27.889C30.3734 27.7906 30.1375 27.7094 29.9094 27.6047C29.8359 27.5719 29.7703 27.5562 29.7219 27.5234C29.4281 27.3937 29.1359 27.2625 28.8516 27.125L28.4203 26.8969L28.1766 26.775C27.9812 26.6765 27.8016 26.5719 27.6234 26.4656C27.575 26.4406 27.5344 26.4172 27.4937 26.3922C27.2734 26.2531 27.0469 26.1234 26.8344 25.9765C26.7609 25.9359 26.6953 25.8953 26.6312 25.8469L26.2 25.5703C25.8984 25.3594 25.6062 25.1312 25.3047 24.9187C25.2391 24.8531 25.175 24.8047 25.1094 24.7562C21.9922 22.2984 19.5344 18.9453 18.3625 15.1531C17.1344 11.2062 17.4109 6.77966 19.5266 3.1906L16.9187 6.88435ZM28.4594 2.88123C26.5719 5.65623 26.3844 9.10623 27.6859 12.1672C29.0687 15.414 31.9016 17.9703 35.1969 19.1734C35.3359 19.2297 35.4656 19.2719 35.6031 19.3203L35.7828 19.3765C35.9781 19.4328 36.1734 19.5062 36.3687 19.5562C45.4828 21.314 47.9484 14.8687 48.6172 13.925C46.4437 17.0422 42.8062 17.7906 38.3391 16.7078C37.9812 16.6094 37.6234 16.5047 37.2641 16.3734C36.8328 16.2187 36.4016 16.039 35.9781 15.8437C35.1891 15.4531 34.4312 14.9969 33.7312 14.4687C29.7266 11.4328 27.2531 5.65466 29.8656 0.943726L28.4594 2.88123Z" fill="#78CFF5"/>
</g>
<defs>
<clipPath id="clip0_38_28">
<rect width="50" height="50" fill="white"/>
</clipPath>
</defs>
</svg>
