<svg width="50" height="50" viewBox="0 0 50 50" fill="none" xmlns="http://www.w3.org/2000/svg">
<path d="M45.4185 13.434C45.4336 13.4901 45.4415 13.548 45.4415 13.6061V22.64C45.4415 22.876 45.3153 23.094 45.1105 23.2114L37.5282 27.5769V36.2296C37.5282 36.465 37.4031 36.6824 37.1989 36.801L21.3714 45.9123C21.3352 45.9329 21.2957 45.946 21.2562 45.96C21.2414 45.965 21.2274 45.974 21.2117 45.9781C21.1011 46.0073 20.9848 46.0073 20.8741 45.9781C20.856 45.9732 20.8396 45.9633 20.8223 45.9567C20.786 45.9436 20.7482 45.932 20.7136 45.9123L4.88943 36.801C4.68482 36.6834 4.55844 36.4655 4.55844 36.2296V9.12786C4.55844 9.06858 4.56667 9.01095 4.5815 8.95496C4.58644 8.93602 4.59796 8.91873 4.60455 8.89979C4.6169 8.86521 4.62843 8.82981 4.64654 8.7977C4.65889 8.77629 4.677 8.759 4.69183 8.73924C4.71076 8.71289 4.72805 8.68572 4.75028 8.66267C4.76922 8.64373 4.79392 8.62973 4.81533 8.61326C4.83921 8.5935 4.86061 8.5721 4.88778 8.55645H4.88861L12.8011 4.0008C13.005 3.88348 13.2559 3.88348 13.4598 4.0008L21.3723 8.55645H21.3739C21.4003 8.57292 21.4225 8.5935 21.4464 8.61244C21.4678 8.62891 21.4917 8.64373 21.5106 8.66184C21.5336 8.68572 21.5501 8.71289 21.5699 8.73924C21.5839 8.759 21.6028 8.77629 21.6143 8.7977C21.6333 8.83063 21.644 8.86521 21.6571 8.89979C21.6637 8.91873 21.6753 8.93602 21.6802 8.95578C21.6954 9.01189 21.7031 9.06974 21.7033 9.12786V26.0553L28.2967 22.2588V13.6053C28.2967 13.5477 28.305 13.4892 28.3198 13.434C28.3255 13.4143 28.3362 13.397 28.3428 13.378C28.356 13.3435 28.3675 13.3081 28.3856 13.2759C28.398 13.2545 28.4161 13.2373 28.4301 13.2175C28.4499 13.1911 28.4663 13.164 28.4894 13.1409C28.5083 13.122 28.5322 13.108 28.5536 13.0915C28.5783 13.0718 28.5997 13.0503 28.6261 13.0347H28.6269L36.5402 8.47906C36.744 8.36156 36.995 8.36156 37.1989 8.47906L45.1114 13.0347C45.1394 13.0512 45.1608 13.0718 45.1855 13.0907C45.2061 13.1072 45.2299 13.122 45.2489 13.1401C45.2719 13.164 45.2884 13.1911 45.3081 13.2175C45.323 13.2373 45.3411 13.2545 45.3526 13.2759C45.3715 13.3081 45.3823 13.3435 45.3954 13.378C45.4028 13.397 45.4135 13.4143 45.4185 13.434ZM44.1225 22.2588V14.7465L41.3536 16.3405L37.5282 18.543V26.0553L44.1233 22.2588H44.1225ZM36.21 35.8483V28.3311L32.4473 30.48L21.7024 36.6124V44.2005L36.21 35.8483ZM5.87746 10.2682V35.8483L20.3834 44.1997V36.6133L12.8052 32.3244L12.8027 32.3227L12.7994 32.3211C12.7739 32.3063 12.7525 32.2848 12.7286 32.2667C12.7081 32.2503 12.6842 32.2371 12.6661 32.219L12.6644 32.2165C12.643 32.1959 12.6282 32.1704 12.6101 32.1473C12.5936 32.1251 12.5738 32.1062 12.5607 32.0831L12.5598 32.0807C12.545 32.056 12.536 32.0263 12.5253 31.9983C12.5146 31.9736 12.5006 31.9506 12.494 31.9242V31.9234C12.4857 31.8921 12.4841 31.8592 12.4808 31.8271C12.4775 31.8024 12.4709 31.7777 12.4709 31.753V31.7513V14.0647L8.64642 11.8614L5.87746 10.269V10.2682ZM13.1313 5.333L6.53862 9.12786L13.1296 12.9227L19.7214 9.12704L13.1296 5.333H13.1313ZM16.5597 29.0161L20.3842 26.8145V10.2682L17.6153 11.8622L13.7899 14.0647V30.611L16.5597 29.0161ZM36.8695 9.81125L30.2777 13.6061L36.8695 17.401L43.4605 13.6053L36.8695 9.81125ZM36.21 18.543L32.3847 16.3405L29.6157 14.7465V22.2588L33.4402 24.4605L36.21 26.0553V18.543ZM21.0421 35.4721L30.7108 29.9523L35.5439 27.194L28.9571 23.4016L21.3731 27.7679L14.461 31.7472L21.0421 35.4721Z" fill="#FF2D20"/>
</svg>
