<svg width="50" height="50" viewBox="0 0 50 50" fill="none" xmlns="http://www.w3.org/2000/svg">
<g clip-path="url(#clip0_77_85)">
<path d="M12.1867 38.3794H10.3003C10.2336 35.1954 10.0499 32.2021 9.74956 29.3971H9.73279L6.86081 38.3794H5.42463L2.56978 29.3971H2.55338C2.3416 32.0901 2.20819 35.0842 2.15278 38.3794H0.43338C0.544192 34.3724 0.822678 30.6157 1.26775 27.1091H3.60572L6.3268 35.3904H6.34357L9.08141 27.1091H11.3184C11.8083 31.2164 12.0977 34.9734 12.1867 38.3794ZM20.3674 30.0642C19.5994 34.232 18.586 37.2604 17.3285 39.1507C16.3487 40.6059 15.2752 41.3342 14.1062 41.3342C13.7945 41.3342 13.41 41.2401 12.9543 41.0535V40.0485C13.1771 40.0806 13.4384 40.0988 13.7388 40.0988C14.2848 40.0988 14.7237 39.9486 15.0583 39.6476C15.4585 39.2809 15.6587 38.8686 15.6587 38.4126C15.6587 38.0998 15.5026 37.4605 15.1913 36.4923L13.1213 30.0638H14.9745L16.4602 34.8717C16.7941 35.9634 16.9333 36.7256 16.8776 37.1598C17.6901 34.9898 18.2576 32.6238 18.5809 30.0635H20.3674V30.0642Z" fill="#5D87A1"/>
<path d="M45.4768 38.3794H40.1185V27.1091H41.921V36.9921H45.4768V38.3794ZM38.7158 38.6517L36.6439 37.6292C36.8276 37.4783 37.0033 37.315 37.1615 37.1259C38.0422 36.0914 38.4814 34.5615 38.4814 32.5352C38.4814 28.8066 37.0183 26.9414 34.0909 26.9414C32.6554 26.9414 31.5357 27.4145 30.7348 28.3612C29.8549 29.3964 29.4157 30.9208 29.4157 32.9362C29.4157 34.9173 29.805 36.3706 30.5839 37.2924C31.2966 38.1275 32.3708 38.5456 33.8073 38.5456C34.3431 38.5456 34.8349 38.48 35.2828 38.3477L37.9802 39.918L38.7158 38.6517ZM32.0041 36.1242C31.5477 35.39 31.3195 34.2112 31.3195 32.5859C31.3195 29.7481 32.1816 28.3276 33.9075 28.3276C34.8097 28.3276 35.4709 28.6674 35.8938 29.3454C36.3494 30.0806 36.5787 31.2488 36.5787 32.8516C36.5787 35.7126 35.7159 37.1433 33.991 37.1433C33.0885 37.1437 32.4273 36.8051 32.0041 36.1242ZM28.6301 35.2555C28.6301 36.2113 28.2795 36.9954 27.5789 37.6096C26.8776 38.2212 25.9371 38.5278 24.7587 38.5278C23.6564 38.5278 22.5876 38.1756 21.5532 37.4751L22.0376 36.5073C22.9277 36.9531 23.7337 37.1747 24.4572 37.1747C25.1363 37.1747 25.667 37.0242 26.052 36.7256C26.4365 36.426 26.6658 36.0057 26.6658 35.4743C26.6658 34.8046 26.1989 34.2324 25.3423 33.753C24.5524 33.3193 22.9726 32.4124 22.9726 32.4124C22.1163 31.7883 21.6877 31.1183 21.6877 30.0146C21.6877 29.1011 22.0073 28.3637 22.6471 27.8027C23.2875 27.2396 24.1139 26.9589 25.1268 26.9589C26.173 26.9589 27.124 27.2392 27.9806 27.794L27.5461 28.7621C26.8134 28.4508 26.0902 28.2952 25.3769 28.2952C24.7991 28.2952 24.353 28.4341 24.0428 28.7129C23.73 28.9907 23.5372 29.3461 23.5372 29.782C23.5372 30.4484 24.014 31.0279 24.8939 31.5168C25.6944 31.9512 27.3135 32.8738 27.3135 32.8738C28.1916 33.4968 28.6301 34.1606 28.6301 35.2555Z" fill="#F8981D"/>
<path d="M47.7397 23.3342C46.6498 23.3065 45.806 23.4162 45.0977 23.7159C44.8932 23.7975 44.5681 23.7975 44.5397 24.056C44.6501 24.1653 44.6629 24.3417 44.7587 24.4926C44.922 24.7649 45.2067 25.1313 45.4666 25.3223C45.752 25.541 46.0385 25.7575 46.3389 25.9481C46.8685 26.2758 47.4689 26.4665 47.985 26.7931C48.2858 26.983 48.5847 27.2287 48.8857 27.4332C49.0337 27.5421 49.1285 27.7189 49.3206 27.7871V27.7455C49.2244 27.6231 49.197 27.4459 49.1026 27.3096L48.6936 26.9152C48.2985 26.3845 47.8075 25.9212 47.2779 25.5406C46.8419 25.2403 45.8884 24.832 45.7116 24.3297L45.6839 24.302C45.9835 24.2739 46.3389 24.1653 46.6236 24.0818C47.0869 23.9597 47.5093 23.9874 47.9847 23.8653C48.2034 23.8106 48.4203 23.7421 48.6397 23.6747V23.5518C48.3933 23.3065 48.2176 22.9806 47.9584 22.7488C47.2651 22.1499 46.5011 21.5642 45.7116 21.0739C45.2887 20.8009 44.7449 20.6252 44.2947 20.393C44.1325 20.311 43.8591 20.2705 43.7636 20.1342C43.5194 19.8345 43.382 19.4401 43.2048 19.0855C42.8112 18.3371 42.4288 17.5068 42.0891 16.7154C41.8434 16.1847 41.6939 15.6547 41.3943 15.1637C39.9909 12.8491 38.4669 11.4471 36.1246 10.0711C35.6212 9.78461 35.0223 9.6625 34.3826 9.51232L33.3608 9.45837C33.1429 9.36287 32.9245 9.1037 32.7342 8.98122C31.9571 8.49132 29.9563 7.4295 29.3848 8.83141C29.0166 9.71754 29.9293 10.5887 30.2428 11.0382C30.4743 11.3502 30.7743 11.7052 30.9361 12.0595C31.032 12.291 31.059 12.5367 31.1548 12.7813C31.3728 13.3805 31.5766 14.0472 31.8631 14.6064C32.0125 14.8914 32.1754 15.191 32.3665 15.4491C32.4758 15.6 32.6661 15.6667 32.7076 15.9128C32.5177 16.184 32.5028 16.5933 32.3938 16.9338C31.9039 18.4724 32.0953 20.3784 32.7896 21.5091C33.0069 21.8496 33.5252 22.599 34.2185 22.3118C34.8324 22.0668 34.6964 21.2908 34.8728 20.6102C34.9133 20.4458 34.8867 20.3379 34.9683 20.23V20.2567C35.1582 20.6376 35.35 21.0046 35.526 21.3866C35.9485 22.0533 36.6841 22.7481 37.2968 23.2099C37.6231 23.4563 37.8815 23.8777 38.2901 24.0283V23.9874H38.2632C38.1804 23.8653 38.0594 23.8106 37.9508 23.7159C37.7051 23.4705 37.4332 23.1709 37.2425 22.899C36.6717 22.1361 36.1665 21.2915 35.7181 20.42C35.4987 19.9971 35.3095 19.5349 35.1327 19.1128C35.0503 18.9499 35.0504 18.7042 34.9137 18.6222C34.7088 18.9214 34.4103 19.1806 34.2608 19.5473C34.0017 20.1338 33.9747 20.8552 33.8784 21.6053L33.8249 21.6316C33.3911 21.5226 33.2402 21.0739 33.0754 20.693C32.6675 19.7256 32.599 18.1727 32.953 17.0566C33.0477 16.7712 33.4578 15.8723 33.2941 15.6004C33.2121 15.3398 32.9395 15.1914 32.79 14.9862C32.6143 14.7281 32.4219 14.4015 32.2994 14.115C31.9728 13.3528 31.8084 12.5082 31.4566 11.7464C31.2922 11.3914 31.0068 11.0239 30.7757 10.697C30.5162 10.3296 30.2308 10.0707 30.0256 9.63516C29.9578 9.48534 29.8626 9.24039 29.9716 9.07746C29.9982 8.9681 30.0536 8.92728 30.1623 8.89994C30.3387 8.75085 30.8428 8.9404 31.0196 9.02241C31.5244 9.22654 31.9465 9.41718 32.3679 9.70296C32.5586 9.83965 32.763 10.0985 33.0076 10.1666H33.2941C33.729 10.2614 34.2193 10.1929 34.6286 10.3161C35.35 10.5479 36.0035 10.888 36.5897 11.255C38.3732 12.3861 39.844 13.9933 40.837 15.9128C40.9999 16.2255 41.0692 16.512 41.2179 16.8383C41.5048 17.506 41.8594 18.187 42.1441 18.8405C42.4302 19.4802 42.7029 20.1334 43.1115 20.6649C43.3153 20.9507 44.134 21.1005 44.501 21.2503C44.7726 21.3724 45.1954 21.481 45.4404 21.6309C45.9037 21.9163 46.3651 22.244 46.8007 22.5578C47.0176 22.7211 47.6993 23.0616 47.7397 23.3342ZM33.8497 11.5007C33.6617 11.4988 33.4742 11.5218 33.2923 11.5693V11.5966H33.3186C33.4283 11.8142 33.6189 11.9651 33.7549 12.155C33.8646 12.3734 33.9597 12.5899 34.0673 12.8079L34.0935 12.7809C34.2856 12.6449 34.3811 12.4269 34.3811 12.1C34.2984 12.0038 34.2856 11.9097 34.2167 11.8142C34.1365 11.6779 33.9597 11.6101 33.8497 11.5007Z" fill="#5D87A1"/>
<path d="M49.0366 38.3776H49.3187V36.9968H48.8955L48.5503 37.9391L48.1753 36.9968H47.7677V38.3776H48.0342V37.3271H48.0491L48.4421 38.3776H48.6451L49.0366 37.3271V38.3776ZM46.7639 38.3776H47.0624V37.2308H47.4532V36.9965H46.3567V37.2308H46.7631L46.7639 38.3776Z" fill="#F8981D"/>
</g>
<defs>
<clipPath id="clip0_77_85">
<rect width="50" height="50" fill="white"/>
</clipPath>
</defs>
</svg>
