<svg width="50" height="50" viewBox="0 0 50 50" fill="none" xmlns="http://www.w3.org/2000/svg">
<path fill-rule="evenodd" clip-rule="evenodd" d="M28.7193 4C28.4259 4 28.1535 4.06534 27.902 4.15245C28.4364 4.52268 28.7297 5.0127 28.8764 5.56806C28.8869 5.64428 28.9079 5.69873 28.9184 5.77495C28.9289 5.84029 28.9393 5.90562 28.9393 5.97096C28.9812 6.92921 28.6983 7.04899 28.4992 7.61524C28.1954 8.34482 28.2792 9.12885 28.6459 9.76043C28.6774 9.83665 28.7193 9.92376 28.7717 9.99999C28.3735 7.245 30.5843 6.83121 30.9929 5.97096C31.0244 5.2196 30.4271 4.71869 29.9556 4.37023C29.5051 4.08711 29.0965 4 28.7193 4ZM32.0512 4.62069C32.0093 4.87114 32.0407 4.80581 32.0303 4.93648C32.0198 5.02359 32.0198 5.13249 32.0093 5.2196C31.9884 5.30671 31.9674 5.39383 31.936 5.48094C31.915 5.56806 31.8836 5.65517 31.8522 5.74228C31.8102 5.8294 31.7788 5.90562 31.7369 5.99274C31.7055 6.03631 31.6845 6.07985 31.6531 6.12341C31.6321 6.15608 31.6111 6.18874 31.5902 6.22141C31.5378 6.29764 31.4854 6.37386 31.433 6.4392C31.3702 6.50453 31.3178 6.58076 31.2444 6.63521V6.64611C31.1816 6.70056 31.1187 6.76589 31.0454 6.82034C30.8253 6.99456 30.5739 7.12523 30.3433 7.28857C30.27 7.34302 30.1967 7.38658 30.1338 7.45191C30.0605 7.50636 29.9976 7.5608 29.9347 7.62614C29.8614 7.69148 29.809 7.75681 29.7461 7.83304C29.6937 7.89838 29.6309 7.9746 29.589 8.05083C29.5366 8.12705 29.4842 8.20327 29.4423 8.2795C29.4003 8.36661 29.3689 8.44284 29.327 8.52995C29.2956 8.61706 29.2641 8.69329 29.2432 8.7804C29.2117 8.87841 29.1908 8.96552 29.1698 9.05264C29.1593 9.09621 29.1593 9.15064 29.1489 9.1942C29.1384 9.23777 29.1384 9.28131 29.128 9.32487C29.128 9.41198 29.1175 9.50999 29.1175 9.5971C29.1175 9.66243 29.1175 9.72777 29.128 9.79311C29.128 9.88022 29.1385 9.96733 29.1594 10.0653C29.1699 10.1524 29.1908 10.2396 29.2118 10.3267C29.2432 10.4138 29.2642 10.5009 29.2956 10.588C29.3165 10.6425 29.348 10.6969 29.369 10.7405L26.9591 9.77133C26.5504 9.65154 26.1523 9.54265 25.7436 9.44465C25.5236 9.39021 25.3036 9.33576 25.0835 9.28131C24.4549 9.15064 23.8157 9.05264 23.1766 8.9873C23.1556 8.9873 23.1452 8.9764 23.1242 8.9764C22.4955 8.91106 21.8773 8.8784 21.2487 8.8784C20.7876 8.8784 20.3266 8.90016 19.8761 8.93284C19.2369 8.97642 18.5978 9.06351 17.9586 9.1724C17.8015 9.19417 17.6443 9.22685 17.4871 9.25952C17.1623 9.32485 16.848 9.40108 16.5441 9.47731C16.387 9.52088 16.2298 9.56442 16.0726 9.60797C15.9155 9.67331 15.7688 9.74954 15.6221 9.81487C15.5068 9.86932 15.3916 9.92376 15.2763 9.97821C15.2554 9.98912 15.2344 9.98912 15.2239 9.99997C15.1192 10.0544 15.0249 10.098 14.9306 10.1524C14.8991 10.1633 14.8782 10.1742 14.8572 10.1851C14.742 10.2395 14.6267 10.3049 14.5324 10.3593C14.4591 10.392 14.3857 10.4355 14.3229 10.4682C14.2914 10.49 14.2495 10.5118 14.2286 10.5227C14.1343 10.5771 14.04 10.6315 13.9561 10.686C13.8618 10.7404 13.778 10.7949 13.7047 10.8493C13.6313 10.9038 13.558 10.9473 13.4951 11.0018C13.4846 11.0127 13.4742 11.0127 13.4637 11.0235C13.4008 11.0671 13.3275 11.1215 13.2646 11.176C13.2646 11.176 13.2541 11.1869 13.2437 11.1978C13.1913 11.2413 13.1389 11.2849 13.0865 11.3284C13.0656 11.3393 13.0446 11.3611 13.0236 11.372C12.9712 11.4156 12.9188 11.47 12.8665 11.5136C12.856 11.5353 12.835 11.5462 12.8245 11.5571C12.7617 11.6225 12.6988 11.6769 12.6359 11.7423C12.6254 11.7423 12.6254 11.7532 12.615 11.764C12.5521 11.8185 12.4893 11.8838 12.4264 11.9491C12.4159 11.96 12.4159 11.9709 12.4055 11.9709C12.3531 12.0253 12.3007 12.0798 12.2483 12.1451C12.2273 12.1669 12.1959 12.1887 12.1749 12.2105C12.1226 12.2758 12.0597 12.3411 11.9968 12.4065C11.9863 12.4282 11.9654 12.4391 11.9549 12.4609C11.8711 12.548 11.7977 12.6351 11.7139 12.7223C11.7034 12.7332 11.693 12.744 11.6825 12.7549C11.5148 12.94 11.3367 13.1252 11.1481 13.2885C10.9595 13.4627 10.7604 13.6261 10.5613 13.7676C10.3518 13.9201 10.1527 14.0507 9.93268 14.1814C9.72312 14.3012 9.50309 14.4101 9.27258 14.5081C9.05255 14.6061 8.82204 14.6932 8.59153 14.7694C8.15146 14.8674 7.70091 15.0526 7.31323 15.0852C7.22941 15.0852 7.13511 15.107 7.05129 15.1179C6.95699 15.1397 6.87317 15.1615 6.78935 15.1832C6.70553 15.2159 6.6217 15.2486 6.53788 15.2812C6.45406 15.3139 6.37024 15.3575 6.28642 15.401C6.21307 15.4555 6.12925 15.499 6.0559 15.5535C5.98256 15.6079 5.90921 15.6732 5.84635 15.7386C5.773 15.793 5.69966 15.8693 5.63679 15.9346C5.57392 16.0108 5.51106 16.0762 5.45867 16.1524C5.40628 16.2395 5.34341 16.3157 5.3015 16.4028C5.24911 16.4791 5.19672 16.5662 5.15481 16.6533C5.11288 16.7513 5.07099 16.8384 5.03956 16.9364C5.00812 17.0235 4.97669 17.1215 4.94526 17.2195C4.92432 17.3066 4.90333 17.3938 4.89287 17.4809C4.89287 17.4918 4.88237 17.5026 4.88237 17.5135C4.86144 17.6115 4.86144 17.7422 4.85094 17.8075C4.84045 17.8838 4.83 17.9491 4.83 18.0253C4.83 18.0689 4.83 18.1233 4.8405 18.1669C4.85099 18.2431 4.86143 18.3085 4.88242 18.3738C4.90336 18.4391 4.92435 18.5045 4.95577 18.5698V18.5807C4.9872 18.646 5.02911 18.7114 5.07102 18.7767C5.11295 18.842 5.15485 18.9074 5.20723 18.9727C5.25962 19.0272 5.32249 19.0925 5.38536 19.1469C5.44822 19.2123 5.51109 19.2667 5.58443 19.3212C5.8359 19.5498 5.89877 19.6261 6.22358 19.8003C6.27597 19.833 6.32836 19.8547 6.39123 19.8874C6.40172 19.8874 6.41216 19.8983 6.42266 19.8983C6.42266 19.9201 6.42266 19.931 6.43315 19.9528C6.44365 20.0399 6.46459 20.127 6.48554 20.2141C6.50648 20.3121 6.53793 20.3992 6.56937 20.4755C6.6008 20.5408 6.62176 20.6061 6.65319 20.6715C6.66368 20.6932 6.67413 20.715 6.68462 20.7259C6.72655 20.813 6.76844 20.8893 6.81035 20.9655C6.86275 21.0417 6.91513 21.1179 6.96752 21.1941C7.01991 21.2595 7.08278 21.3357 7.14564 21.401C7.20851 21.4664 7.27138 21.5208 7.34472 21.5862C7.34472 21.5862 7.35522 21.5971 7.36566 21.5971C7.42853 21.6515 7.4914 21.706 7.55426 21.7495C7.62761 21.804 7.70095 21.8475 7.78477 21.8911C7.85812 21.9347 7.94194 21.9782 8.02576 22.0109C8.08863 22.0435 8.16197 22.0653 8.23532 22.0871C8.24581 22.098 8.25626 22.098 8.27725 22.1089C8.31917 22.1198 8.37154 22.1306 8.41345 22.1415C8.38202 22.7295 8.37153 23.2849 8.45538 23.4809C8.54968 23.6987 9.0107 23.0344 9.47173 22.2722C9.40886 23.0236 9.36695 23.9056 9.47173 24.1669C9.58698 24.4392 10.2156 23.5898 10.7605 22.6533C18.1892 20.8675 24.9684 26.2032 25.6809 33.7386C25.5446 32.5625 24.1511 31.9092 23.512 32.0725C23.1976 32.8783 22.6633 33.9128 21.8041 34.5553C21.8774 33.8366 21.846 33.0961 21.6993 32.3774C21.4688 33.3792 21.0182 34.3157 20.4001 35.1215C19.4047 35.1978 18.4093 34.6968 17.8854 33.9455C17.8435 33.9128 17.833 33.8475 17.8016 33.8039C17.7701 33.7277 17.7387 33.6515 17.7177 33.5753C17.6863 33.499 17.6653 33.4228 17.6549 33.3466C17.6444 33.2704 17.6444 33.1941 17.6444 33.107C17.6444 33.0526 17.6444 32.9981 17.6444 32.9437C17.6549 32.8674 17.6758 32.7912 17.6968 32.715C17.7177 32.6388 17.7387 32.5625 17.7701 32.4863C17.812 32.4101 17.8435 32.3339 17.8958 32.2577C18.074 31.735 18.074 31.3103 17.7492 31.0598C17.6863 31.0163 17.6234 30.9836 17.5501 30.9509C17.5081 30.94 17.4558 30.9183 17.4139 30.9074C17.3824 30.8965 17.3615 30.8856 17.33 30.8747C17.2567 30.8529 17.1834 30.8311 17.11 30.8202C17.0367 30.7985 16.9633 30.7876 16.89 30.7876C16.8166 30.7767 16.7328 30.7658 16.6595 30.7658C16.6071 30.7658 16.5547 30.7767 16.5023 30.7767C16.4185 30.7767 16.3451 30.7876 16.2718 30.8094C16.1984 30.8203 16.1251 30.8312 16.0518 30.853C15.9784 30.8747 15.9051 30.8965 15.8317 30.9292C15.7584 30.9619 15.6955 30.9945 15.6222 31.0272C15.5593 31.0599 15.4964 31.1034 15.4231 31.1361C12.9818 32.7913 14.4382 36.6678 16.1041 37.7894C15.4755 37.9092 14.8363 38.0508 14.6582 38.1923C14.6477 38.2032 14.6373 38.2141 14.6373 38.2141C15.0878 38.4972 15.5593 38.7368 16.0518 38.9437C16.7223 39.1723 17.4348 39.3792 17.7492 39.4664V39.4773C18.6188 39.6624 19.499 39.7277 20.3896 39.6733C25.0312 39.3357 28.8347 35.666 29.5262 30.8312C29.5471 30.9292 29.5681 31.0163 29.5891 31.1143C29.6205 31.3103 29.6624 31.5172 29.6834 31.7241V31.735C29.7043 31.833 29.7148 31.931 29.7253 32.0181V32.0617C29.7358 32.1597 29.7462 32.2577 29.7462 32.3448C29.7567 32.4646 29.7672 32.5844 29.7672 32.7042V32.8784C29.7672 32.9329 29.7777 32.9982 29.7777 33.0526C29.7777 33.118 29.7672 33.1833 29.7672 33.2486V33.4011C29.7672 33.4773 29.7567 33.5427 29.7567 33.6189C29.7567 33.6625 29.7567 33.706 29.7462 33.7604C29.7462 33.8367 29.7357 33.9129 29.7357 34C29.7252 34.0327 29.7252 34.0653 29.7252 34.098C29.7147 34.1851 29.7042 34.2614 29.6937 34.3485C29.6937 34.3811 29.6937 34.4138 29.6832 34.4465C29.6727 34.5554 29.6518 34.6534 29.6413 34.7623V34.7732V34.7841C29.6204 34.8821 29.5994 34.991 29.5785 35.089V35.1216C29.5575 35.2196 29.5365 35.3177 29.5156 35.4157C29.5156 35.4266 29.5051 35.4483 29.5051 35.4592C29.4842 35.5572 29.4632 35.6552 29.4318 35.7532V35.7859C29.4003 35.8948 29.3689 35.9928 29.3479 36.0908C29.3374 36.1017 29.3374 36.1126 29.3374 36.1126C29.306 36.2215 29.2746 36.3304 29.2431 36.4392C29.2012 36.5481 29.1698 36.6461 29.1279 36.755C29.086 36.8639 29.0545 36.9728 29.0126 37.0708C28.9707 37.1797 28.9288 37.2777 28.8869 37.3866H28.8764C28.8345 37.4846 28.7926 37.5935 28.7402 37.6915C28.7297 37.7242 28.7192 37.746 28.7087 37.7677C28.6983 37.7787 28.6983 37.7895 28.6878 37.8004C28.0068 39.2269 27.0009 40.4792 25.7436 41.4592C25.6597 41.5136 25.5759 41.579 25.4921 41.6443C25.4711 41.6661 25.4397 41.677 25.4187 41.6988C25.3454 41.7532 25.272 41.8076 25.1882 41.8621L25.2197 41.9274H25.2302C25.3768 41.9057 25.5235 41.8839 25.6702 41.8621H25.6807C25.9531 41.8185 26.2256 41.7641 26.498 41.7096C26.5713 41.6987 26.6552 41.677 26.7285 41.6552C26.7809 41.6443 26.8228 41.6334 26.8752 41.6225C26.9485 41.6116 27.0219 41.5899 27.0952 41.579C27.1581 41.5572 27.2209 41.5463 27.2838 41.5245C28.3316 41.2632 29.3479 40.9038 30.3224 40.4791C28.6564 42.8421 26.4246 44.7477 23.8157 46C25.0206 45.9129 26.2256 45.706 27.3886 45.3575C31.6111 44.0617 35.1631 41.1107 37.2901 37.1361C36.8605 39.6516 35.8965 42.0472 34.4716 44.1379C35.4879 43.441 36.4204 42.6352 37.2691 41.7205C39.6162 39.1724 41.1564 35.9383 41.6803 32.4646C42.0365 34.1851 42.1413 35.9601 41.9841 37.7133C49.5491 26.7478 42.6128 15.3794 39.7105 12.3848C39.7 12.3631 39.6895 12.3522 39.6895 12.3304C39.679 12.3413 39.679 12.3413 39.679 12.3521C39.679 12.3412 39.679 12.3412 39.6685 12.3304C39.6685 12.4611 39.658 12.5917 39.6476 12.7224C39.6161 12.9729 39.5847 13.2124 39.5428 13.452C39.4904 13.6915 39.4276 13.9311 39.3647 14.1707C39.2913 14.3993 39.2075 14.6389 39.1132 14.8676C39.0189 15.0854 38.9141 15.314 38.7989 15.5318C38.6836 15.7387 38.5579 15.9565 38.4217 16.1525C38.2855 16.3594 38.1388 16.5554 37.9921 16.7405C37.8349 16.9365 37.6673 17.1108 37.4996 17.285C37.3949 17.383 37.3006 17.4701 37.1958 17.5572C37.112 17.6335 37.0386 17.6988 36.9548 17.775C36.7662 17.9275 36.5776 18.069 36.368 18.1997C36.169 18.3304 35.9594 18.461 35.7499 18.5699C35.5298 18.6788 35.3098 18.7768 35.0898 18.8748C34.8697 18.9619 34.6392 19.0382 34.4087 19.1035C34.1782 19.1688 33.9372 19.2233 33.7067 19.2668C33.4657 19.3104 33.2247 19.3322 32.9942 19.354C32.8265 19.3649 32.6589 19.3757 32.4913 19.3757C32.2503 19.3757 32.0093 19.354 31.7788 19.3322C31.5378 19.3104 31.2968 19.2777 31.0663 19.2233C30.8253 19.1797 30.5948 19.1144 30.3643 19.0381H30.3538C30.5843 19.0164 30.8148 18.9946 31.0453 18.951C31.2863 18.9074 31.5168 18.853 31.7473 18.7877C31.9778 18.7223 32.2083 18.6461 32.4284 18.559C32.6589 18.4719 32.8789 18.363 33.0885 18.2541C33.3085 18.1452 33.5076 18.0254 33.7171 17.8948C33.9162 17.7532 34.1153 17.6116 34.3039 17.4592C34.4925 17.3067 34.6706 17.1434 34.8383 16.9692C35.0164 16.8058 35.1736 16.6207 35.3307 16.4356C35.4879 16.2396 35.6346 16.0436 35.7708 15.8476C35.7917 15.8149 35.8127 15.7714 35.8337 15.7387C35.9384 15.5645 36.0432 15.3902 36.1375 15.216C36.2528 14.9982 36.3575 14.7804 36.4518 14.5518C36.5461 14.3231 36.63 14.0944 36.7033 13.8548C36.7767 13.6262 36.829 13.3866 36.8814 13.147C36.9234 12.8966 36.9653 12.657 36.9862 12.4175C37.0072 12.167 37.0281 11.9166 37.0281 11.677C37.0281 11.5028 37.0176 11.3285 37.0072 11.1543C36.9863 10.9039 36.9548 10.6643 36.9234 10.4247C36.8815 10.1743 36.8291 9.93471 36.7662 9.69515C36.6929 9.46647 36.6195 9.22691 36.5357 8.99824C36.4519 8.76956 36.3471 8.54088 36.2423 8.3231C36.1271 8.10531 36.0118 7.88753 35.8861 7.68063C35.7499 7.47374 35.6137 7.27773 35.467 7.08172C35.3098 6.8966 35.1526 6.71149 34.985 6.52637C34.9012 6.43926 34.8069 6.34125 34.7126 6.25414C34.2411 5.87301 33.7486 5.51367 33.2562 5.18699C33.1828 5.14342 33.1199 5.11077 33.0466 5.0781C32.7008 4.84942 32.376 4.72958 32.0512 4.62069Z" fill="#E0234E"/>
</svg>
