<svg width="50" height="50" viewBox="0 0 50 50" fill="none" xmlns="http://www.w3.org/2000/svg">
<path d="M25 46.363C24.4099 46.363 23.8592 46.2057 23.3478 45.9303L18.1159 42.8226C17.3292 42.3899 17.7226 42.2326 17.9586 42.1539C19.0207 41.7999 19.2174 41.7212 20.3188 41.0918C20.4368 41.0131 20.5942 41.0525 20.7122 41.1311L24.7246 43.5307C24.882 43.6094 25.0787 43.6094 25.1967 43.5307L40.8923 34.4438C41.0497 34.3651 41.1284 34.2077 41.1284 34.0111V15.8765C41.1284 15.6798 41.0497 15.5224 40.8923 15.4438L25.1967 6.39616C25.0393 6.31748 24.8426 6.31748 24.7246 6.39616L9.02898 15.4438C8.87164 15.5224 8.79296 15.7191 8.79296 15.8765V34.0111C8.79296 34.1684 8.87164 34.3651 9.02898 34.4438L13.3168 36.922C15.6377 38.1022 17.0932 36.7253 17.0932 35.3485V17.45C17.0932 17.214 17.2899 16.9779 17.5652 16.9779H19.5714C19.8075 16.9779 20.0435 17.1746 20.0435 17.45V35.3485C20.0435 38.4562 18.352 40.2657 15.4017 40.2657C14.4969 40.2657 13.7888 40.2657 11.7826 39.2823L7.65217 36.922C6.6294 36.332 6 35.2305 6 34.0504V15.9158C6 14.7357 6.6294 13.6342 7.65217 13.0442L23.3478 3.95723C24.3313 3.40651 25.6687 3.40651 26.6522 3.95723L42.3478 13.0442C43.3706 13.6342 44 14.7357 44 15.9158V34.0504C44 35.2305 43.3706 36.332 42.3478 36.922L26.6522 46.009C26.1408 46.245 25.5507 46.363 25 46.363ZM29.8385 33.893C22.9544 33.893 21.5383 30.746 21.5383 28.0711C21.5383 27.8351 21.735 27.5991 22.0103 27.5991H24.0559C24.2919 27.5991 24.4886 27.7564 24.4886 27.9924C24.8033 30.0773 25.7081 31.1001 29.8778 31.1001C33.1822 31.1001 34.5983 30.3527 34.5983 28.5825C34.5983 27.5597 34.205 26.8123 29.0518 26.3009C24.764 25.8682 22.089 24.9241 22.089 21.5017C22.089 18.3154 24.764 16.4272 29.2484 16.4272C34.2836 16.4272 36.7619 18.1581 37.0766 21.9345C37.0766 22.0525 37.0373 22.1705 36.9586 22.2885C36.8799 22.3672 36.7619 22.4458 36.6439 22.4458H34.5983C34.4017 22.4458 34.205 22.2885 34.1656 22.0918C33.6936 19.9282 32.4741 19.2202 29.2484 19.2202C25.6294 19.2202 25.1967 20.479 25.1967 21.4231C25.1967 22.5639 25.7081 22.9179 30.5859 23.5473C35.4244 24.1767 37.706 25.0815 37.706 28.4645C37.6667 31.9262 34.8344 33.893 29.8385 33.893Z" fill="#539E43"/>
</svg>
