<svg width="38" height="50" viewBox="0 0 38 50" fill="none" xmlns="http://www.w3.org/2000/svg">
<g clip-path="url(#clip0_66_59)">
<path d="M27.0223 0H1.10982C0.388395 0 -0.196426 0.584821 -0.196426 1.71964V49.1071C-0.196426 49.4152 0.388395 50 1.10982 50H36.8902C37.6116 50 38.1964 49.4152 38.1964 49.1071V11.5875C38.1964 10.9661 38.1134 10.7661 37.967 10.6187L27.5777 0.229464C27.4304 0.0830357 27.2304 0 27.0223 0Z" fill="#E9E9E0"/>
<path d="M27.4821 0.134827V10.7143H38.0616L27.4821 0.134827Z" fill="#D9D7CA"/>
<path d="M11.4232 29.7536C11.1125 29.7536 10.8143 29.6527 10.5598 29.4625C9.63035 28.7652 9.50535 27.9893 9.56428 27.4607C9.72678 26.0071 11.5241 24.4857 14.908 22.9357C16.2509 19.9928 17.5286 16.367 18.2902 13.3375C17.3991 11.3982 16.533 8.88213 17.1643 7.40624C17.3857 6.88928 17.6616 6.49285 18.1768 6.32142C18.3804 6.25356 18.8946 6.16785 19.0839 6.16785C19.5339 6.16785 19.9295 6.74731 20.2098 7.10445C20.4732 7.44017 21.0705 8.15177 19.8768 13.1777C21.0804 15.6634 22.7857 18.1955 24.4196 19.9295C25.5902 19.7178 26.5973 19.6098 27.4179 19.6098C28.8161 19.6098 29.6634 19.9357 30.0089 20.6071C30.2946 21.1625 30.1777 21.8116 29.6607 22.5357C29.1634 23.2312 28.4777 23.5991 27.6786 23.5991C26.5929 23.5991 25.3286 22.9134 23.9187 21.5589C21.3857 22.0884 18.4277 23.033 16.0366 24.0786C15.2902 25.6625 14.575 26.9384 13.9089 27.8741C12.9937 29.1553 12.2045 29.7536 11.4232 29.7536ZM13.8 25.1768C11.892 26.2491 11.1143 27.1303 11.058 27.6268C11.0491 27.7089 11.025 27.925 11.4429 28.2446C11.5759 28.2027 12.3527 27.8482 13.8 25.1768ZM25.9759 21.2107C26.7036 21.7705 26.8812 22.0536 27.3571 22.0536C27.5661 22.0536 28.1616 22.0446 28.4375 21.6598C28.5705 21.4732 28.6223 21.3536 28.6429 21.2893C28.533 21.2312 28.3875 21.1134 27.5937 21.1134C27.1429 21.1143 26.5759 21.1339 25.9759 21.2107ZM19.3062 15.3339C18.6679 17.5428 17.825 19.9277 16.9187 22.0875C18.7848 21.3634 20.8134 20.7312 22.7187 20.2839C21.5134 18.8839 20.3089 17.1357 19.3062 15.3339ZM18.7643 7.77856C18.6768 7.80803 17.5768 9.34731 18.85 10.65C19.6973 8.7616 18.8027 7.76606 18.7643 7.77856Z" fill="#CC4B4C"/>
<path d="M36.8902 50H1.10982C0.388395 50 -0.196426 49.4152 -0.196426 48.6938V34.8214H38.1964V48.6938C38.1964 49.4152 37.6116 50 36.8902 50Z" fill="#CC4B4C"/>
<path d="M9.52232 47.3214H8.05714V38.325H10.6446C11.0268 38.325 11.4054 38.3857 11.7795 38.508C12.1536 38.6304 12.4893 38.8134 12.7866 39.0572C13.0839 39.3009 13.3241 39.5964 13.5071 39.942C13.6902 40.2875 13.7821 40.6759 13.7821 41.108C13.7821 41.5643 13.7045 41.9768 13.55 42.3473C13.3955 42.7179 13.1795 43.0295 12.9027 43.2813C12.6259 43.533 12.292 43.7286 11.9018 43.867C11.5116 44.0054 11.0795 44.0741 10.608 44.0741H9.52143L9.52232 47.3214ZM9.52232 39.4357V43H10.8652C11.0438 43 11.2205 42.9697 11.3964 42.908C11.5714 42.8473 11.7321 42.7473 11.8786 42.6089C12.025 42.4705 12.1429 42.2777 12.2321 42.0295C12.3214 41.7813 12.3661 41.4741 12.3661 41.108C12.3661 40.9616 12.3455 40.792 12.3054 40.6018C12.2643 40.4107 12.1813 40.2277 12.0554 40.0527C11.9286 39.8777 11.7518 39.7313 11.5241 39.6134C11.2964 39.4955 10.9946 39.4366 10.6205 39.4366L9.52232 39.4357Z" fill="white"/>
<path d="M22.767 42.5732C22.767 43.3134 22.6875 43.9464 22.5286 44.4714C22.3696 44.9964 22.1687 45.4357 21.9241 45.7902C21.6795 46.1447 21.4054 46.4232 21.1 46.6268C20.7946 46.8304 20.5 46.9822 20.2152 47.0848C19.9304 47.1866 19.6696 47.2518 19.4339 47.2804C19.1982 47.3072 19.0232 47.3214 18.9089 47.3214H15.5036V38.325H18.2134C18.9705 38.325 19.6357 38.4455 20.2089 38.6848C20.7821 38.9241 21.2589 39.2447 21.6375 39.6429C22.0161 40.0411 22.2982 40.4955 22.4857 41.0036C22.6732 41.5125 22.767 42.0357 22.767 42.5732ZM18.4214 46.2473C19.4143 46.2473 20.1304 45.9304 20.5696 45.2955C21.0089 44.6607 21.2286 43.7411 21.2286 42.5366C21.2286 42.1625 21.1839 41.792 21.0946 41.4259C21.0045 41.0598 20.8321 40.7286 20.5759 40.4313C20.3196 40.1339 19.9714 39.8938 19.5321 39.7107C19.0929 39.5277 18.5232 39.4357 17.8232 39.4357H16.9687V46.2473H18.4214Z" fill="white"/>
<path d="M26.3804 39.4357V42.2679H30.1402V43.2688H26.3804V47.3214H24.8911V38.325H30.5179V39.4357H26.3804Z" fill="white"/>
</g>
<defs>
<clipPath id="clip0_66_59">
<rect width="38" height="50" fill="white"/>
</clipPath>
</defs>
</svg>
