<svg width="50" height="50" viewBox="0 0 50 50" fill="none" xmlns="http://www.w3.org/2000/svg">
<path d="M12.125 5H38C41.875 5 45 8.19489 45 12.2843V37.7157C45 41.6773 41.875 45 37.875 45H12.125C8.25 45 5 41.8051 5 37.7157V12.2843C5 8.19489 8.125 5 12.125 5Z" fill="#001E36"/>
<path d="M14 32.9872V15.4793C14 15.3515 14 15.2237 14.125 15.2237C14.375 15.2237 14.625 15.2237 15.125 15.2237C15.5 15.2237 16 15.2237 16.375 15.2237C16.875 15.2237 17.375 15.2237 17.875 15.2237C18.375 15.2237 18.875 15.2237 19.375 15.2237C20.75 15.2237 21.875 15.3515 22.75 15.7348C23.625 15.9904 24.375 16.5016 25 17.0128C25.5 17.524 26 18.163 26.25 18.9297C26.5 19.6965 26.625 20.3355 26.625 21.1023C26.625 22.508 26.25 23.786 25.625 24.6805C25 25.5751 24 26.3419 23 26.7253C21.875 27.1086 20.625 27.3642 19.25 27.3642C18.875 27.3642 18.625 27.3642 18.375 27.3642C18.25 27.3642 18 27.3642 17.625 27.3642V32.8594C17.625 32.9872 17.5 33.115 17.5 33.115H14.25C14.125 33.2428 14 33.115 14 32.9872ZM17.625 18.5463V24.2971C17.875 24.2971 18.125 24.2971 18.25 24.2971H19.125C19.75 24.2971 20.375 24.1694 21 24.0416C21.5 23.9138 22 23.5304 22.375 23.147C22.75 22.7636 22.875 22.1246 22.875 21.3578C22.875 20.8467 22.75 20.3355 22.5 19.8243C22.25 19.4409 21.75 19.0575 21.375 18.8019C20.75 18.5463 20.125 18.4186 19.375 18.4186C19 18.4186 18.625 18.4186 18.25 18.4186C17.875 18.4186 17.75 18.5463 17.625 18.5463Z" fill="#31A8FF"/>
<path d="M37 23.147C36.5 22.8914 36 22.6358 35.375 22.508C34.75 22.3802 34.125 22.2524 33.5 22.2524C33.125 22.2524 32.875 22.2524 32.5 22.3802C32.25 22.3802 32.125 22.508 32 22.7636C31.875 22.8914 31.875 23.0192 31.875 23.2748C31.875 23.4026 31.875 23.5304 32 23.6582C32.125 23.786 32.375 24.0415 32.625 24.1693C33 24.4249 33.375 24.5527 33.75 24.6805C34.625 24.9361 35.5 25.4473 36.25 25.9585C36.75 26.3419 37.25 26.853 37.625 27.3642C37.875 27.8754 38 28.5144 38 29.1534C38 29.9201 37.75 30.6869 37.375 31.4537C36.875 32.0927 36.25 32.6038 35.5 32.9872C34.625 33.3706 33.625 33.4984 32.5 33.4984C31.75 33.4984 31 33.3706 30.25 33.2428C29.625 33.115 29.125 32.9872 28.5 32.7316C28.375 32.7316 28.25 32.476 28.25 32.3483V29.409L28.375 29.2812H28.5C29.125 29.6645 29.875 29.9201 30.625 30.1757C31.25 30.3035 31.875 30.4313 32.625 30.4313C33.25 30.4313 33.75 30.3035 34 30.1757C34.25 30.0479 34.5 29.7923 34.5 29.409C34.5 29.1534 34.375 28.8978 34.125 28.77C33.875 28.5144 33.25 28.2588 32.5 28.0032C31.625 27.7476 30.875 27.2364 30.125 26.7253C29.625 26.3419 29.125 25.8307 28.875 25.3195C28.625 24.8083 28.5 24.1693 28.5 23.5304C28.5 22.7636 28.75 22.1246 29.125 21.4856C29.5 20.8467 30.125 20.2077 30.875 19.9521C31.625 19.5687 32.625 19.3131 33.875 19.3131C34.625 19.3131 35.25 19.3131 36 19.4409C36.5 19.4409 37 19.6965 37.5 19.8243L37.625 19.9521V20.2077V23.0192L37.5 23.147H37Z" fill="#31A8FF"/>
</svg>
