<svg width="66" height="50" viewBox="0 0 66 50" fill="none" xmlns="http://www.w3.org/2000/svg">
<g clip-path="url(#clip0_76_81)">
<path d="M32.6087 41.8801C50.618 41.8801 65.2174 34.2804 65.2174 24.9057C65.2174 15.5311 50.618 7.9314 32.6087 7.9314C14.5994 7.9314 0 15.5311 0 24.9057C0 34.2804 14.5994 41.8801 32.6087 41.8801Z" fill="#8993BE"/>
<path fill-rule="evenodd" clip-rule="evenodd" d="M9.1572 34.9564L12.7309 16.8652H20.9944C24.5679 17.0886 26.3547 18.8752 26.3547 22.0023C26.3547 27.3626 22.1113 30.4895 18.3141 30.2661H14.2943L13.4009 34.9564H9.1572ZM15.1875 26.916L16.3044 20.2154H19.2078C20.7712 20.2154 21.8878 20.8855 21.8878 22.2255C21.6647 26.0226 19.8778 26.6926 17.8678 26.916H15.1875ZM25.5245 30.2661L29.0979 12.1751H33.3416L32.4482 16.8652H36.4683C40.042 17.0886 41.382 18.8752 40.9354 21.1089L39.372 30.2661H34.9051L36.4685 22.0023C36.6917 20.8855 36.6917 20.2154 35.1285 20.2154H31.7782L29.7682 30.2661H25.5245ZM39.0859 34.9564L42.6593 16.8652H50.9231C54.4968 17.0886 56.2836 18.8752 56.2836 22.0023C56.2836 27.3626 52.0399 30.4895 48.243 30.2661H44.2228L43.3293 34.9564H39.0859ZM45.1159 26.916L46.2328 20.2154H49.1365C50.6999 20.2154 51.8165 20.8855 51.8165 22.2255C51.5933 26.0226 49.8065 26.6926 47.7965 26.916H45.1162H45.1159Z" fill="#232531"/>
</g>
<defs>
<clipPath id="clip0_76_81">
<rect width="65.2174" height="50" fill="white"/>
</clipPath>
</defs>
</svg>
