<svg width="57" height="50" viewBox="0 0 57 50" fill="none" xmlns="http://www.w3.org/2000/svg">
<g clip-path="url(#clip0_1_105)">
<path d="M-3.22281 24.9383C-3.22281 29.6849 1.41219 34.1161 8.71965 36.6137C7.26042 43.96 8.45813 49.881 12.4586 52.1882C16.5707 54.5596 22.6967 52.9181 28.5111 47.8356C34.1788 52.7129 39.907 54.6324 43.9038 52.3186C48.0119 49.9404 49.2614 43.6178 47.7618 36.0422C55.373 33.5258 59.6304 29.7474 59.6304 24.9383C59.6304 20.3017 54.9868 16.2904 47.7779 13.8088C49.3923 5.92009 48.0244 0.14273 43.8583 -2.25974C39.8417 -4.57586 34.047 -2.55712 28.296 2.4479C22.313 -2.86454 16.5754 -4.48649 12.4134 -2.07702C8.40074 0.245694 7.25569 6.27434 8.71965 13.7566C1.65894 16.2184 -3.22281 20.3202 -3.22281 24.9383Z" fill="white"/>
<path d="M46.2511 16.2733C45.6721 16.074 45.0721 15.8854 44.4542 15.707C44.5558 15.2926 44.649 14.8835 44.7319 14.4814C46.0921 7.87884 45.2027 2.55973 42.1658 0.808452C39.2539 -0.870791 34.4916 0.880089 29.6819 5.06583C29.2194 5.46832 28.7556 5.89447 28.2919 6.34108C27.983 6.04559 27.6746 5.76004 27.367 5.4869C22.3263 1.01124 17.2738 -0.874864 14.2399 0.88148C11.3307 2.56559 10.4692 7.56606 11.6936 13.8234C11.8118 14.4278 11.95 15.045 12.1063 15.6725C11.3912 15.8755 10.7009 16.0919 10.0404 16.3221C4.13067 18.3825 0.356476 21.6116 0.356476 24.9611C0.356476 28.4204 4.40808 31.8902 10.5635 33.9941C11.0492 34.1601 11.5533 34.3171 12.0727 34.4661C11.9041 35.1448 11.7575 35.8099 11.6344 36.4586C10.4669 42.6074 11.3786 47.4897 14.28 49.1632C17.277 50.8914 22.3067 49.115 27.2043 44.8339C27.5914 44.4955 27.9799 44.1366 28.3691 43.7604C28.8735 44.2462 29.3771 44.7059 29.8781 45.1371C34.622 49.2194 39.3074 50.8679 42.2062 49.1897C45.2001 47.4565 46.1731 42.2118 44.9099 35.8306C44.8134 35.3433 44.7012 34.8454 44.5751 34.3387C44.9283 34.2342 45.275 34.1264 45.6132 34.0144C52.0123 31.8942 56.1758 28.4666 56.1758 24.9611C56.1758 21.5995 52.2798 18.3486 46.2511 16.2733Z" fill="#53C1DE"/>
<path d="M44.8632 31.7508C44.558 31.8519 44.2448 31.9496 43.9256 32.0442C43.2192 29.8078 42.2658 27.4297 41.099 24.9727C42.2124 22.5742 43.129 20.2265 43.8157 18.0045C44.3867 18.1698 44.9409 18.344 45.4749 18.5279C50.6403 20.3061 53.7912 22.9352 53.7912 24.961C53.7912 27.1189 50.3884 29.9201 44.8632 31.7508ZM42.5706 36.2937C43.1292 39.1153 43.209 41.6664 42.839 43.6607C42.5065 45.4528 41.8379 46.6475 41.0113 47.126C39.2522 48.1443 35.4903 46.8207 31.4332 43.3295C30.9681 42.9293 30.4997 42.5019 30.0297 42.0497C31.6025 40.3295 33.1745 38.3297 34.7086 36.1088C37.4071 35.8693 39.9565 35.4778 42.2685 34.9434C42.3823 35.4027 42.4835 35.8532 42.5706 36.2937ZM19.3865 46.9501C17.6678 47.5571 16.299 47.5744 15.4715 47.0973C13.7108 46.0818 12.9788 42.1617 13.9773 36.9033C14.0916 36.3011 14.2278 35.6825 14.3846 35.0502C16.6713 35.5558 19.202 35.9197 21.9069 36.139C23.4514 38.3122 25.0688 40.3098 26.6986 42.0589C26.3425 42.4027 25.9878 42.73 25.6351 43.0384C23.4694 44.9314 21.2991 46.2745 19.3865 46.9501ZM11.3347 31.7376C8.61287 30.8073 6.3651 29.5983 4.82437 28.2789C3.43992 27.0933 2.74094 25.9162 2.74094 24.961C2.74094 22.9285 5.77124 20.336 10.8253 18.5738C11.4385 18.36 12.0804 18.1585 12.7466 17.9693C13.4451 20.2414 14.3614 22.6169 15.4671 25.0191C14.3471 27.4569 13.4178 29.8703 12.7125 32.169C12.2375 32.0325 11.7774 31.8889 11.3347 31.7376ZM14.0337 13.3654C12.9847 8.00428 13.6814 3.96003 15.4346 2.94519C17.302 1.86408 21.4314 3.40552 25.7836 7.27003C26.0618 7.51703 26.3411 7.77556 26.6212 8.04303C24.9994 9.78447 23.3969 11.7671 21.8661 13.9275C19.2408 14.1708 16.7279 14.5617 14.4174 15.0851C14.2722 14.5008 14.1435 13.9267 14.0337 13.3654ZM38.1116 19.3109C37.5593 18.3568 36.9923 17.4254 36.4142 16.5193C38.1952 16.7445 39.9016 17.0433 41.504 17.4091C41.0229 18.9509 40.4233 20.563 39.7175 22.2156C39.2111 21.2543 38.6756 20.2851 38.1116 19.3109ZM28.2927 9.74721C29.3926 10.9388 30.4941 12.2692 31.5775 13.7127C30.4857 13.6611 29.3805 13.6343 28.2661 13.6343C27.1622 13.6343 26.0651 13.6605 24.9801 13.7112C26.0646 12.2811 27.1756 10.9525 28.2927 9.74721ZM18.4109 19.3274C17.8592 20.2841 17.3336 21.2481 16.8352 22.2138C16.1408 20.567 15.5467 18.9475 15.0615 17.3838C16.6541 17.0274 18.3524 16.736 20.1221 16.5152C19.5358 17.4295 18.9641 18.3681 18.4109 19.3274ZM20.173 33.577C18.3446 33.3731 16.6208 33.0966 15.0286 32.7501C15.5216 31.1585 16.1288 29.5045 16.8379 27.8221C17.3376 28.7872 17.8652 29.7516 18.4204 30.7104C18.9858 31.6872 19.5717 32.644 20.173 33.577ZM28.3587 40.343C27.2285 39.1236 26.1012 37.7747 25.0002 36.3238C26.069 36.3657 27.1587 36.3872 28.2661 36.3872C29.4038 36.3872 30.5286 36.3615 31.6356 36.3123C30.5486 37.7893 29.4511 39.1403 28.3587 40.343ZM39.7402 27.7364C40.4863 29.4369 41.1152 31.0823 41.6146 32.6468C39.9961 33.016 38.2487 33.3133 36.4077 33.5343C36.9871 32.6161 37.5591 31.6686 38.1212 30.694C38.6898 29.708 39.2297 28.7204 39.7402 27.7364ZM36.0556 29.5027C35.1831 31.0156 34.2873 32.4599 33.3778 33.8231C31.7215 33.9416 30.0102 34.0026 28.2661 34.0026C26.529 34.0026 24.8394 33.9486 23.2123 33.843C22.2662 32.4618 21.3509 31.0133 20.4839 29.5157C19.6192 28.0222 18.8235 26.516 18.1024 25.0183C18.8234 23.5171 19.6171 22.0092 20.4769 20.5184L20.4767 20.5187C21.3387 19.0238 22.2459 17.5824 23.1833 16.2098C24.8433 16.0843 26.5456 16.0189 28.266 16.0189C29.9941 16.0189 31.6987 16.0848 33.3583 16.2114C34.2813 17.5739 35.1824 19.0107 36.0478 20.5058C36.923 22.0176 37.727 23.5154 38.4541 24.9844C37.7292 26.4786 36.927 27.9916 36.0556 29.5027ZM40.9747 2.87425C42.8439 3.95218 43.5708 8.29947 42.3964 14.0001C42.3215 14.3639 42.2372 14.7344 42.1456 15.1098C39.8297 14.5755 37.315 14.1779 34.6821 13.9309C33.1483 11.7467 31.5589 9.76103 29.9635 8.04194C30.3924 7.62931 30.8208 7.23585 31.2473 6.86455C35.3683 3.27824 39.2199 1.8623 40.9747 2.87425Z" fill="white"/>
<path d="M28.2661 19.9766C31.0189 19.9766 33.2506 22.2082 33.2506 24.9611C33.2506 27.7139 31.0189 29.9456 28.2661 29.9456C25.5133 29.9456 23.2816 27.7139 23.2816 24.9611C23.2816 22.2082 25.5133 19.9766 28.2661 19.9766Z" fill="#53C1DE"/>
</g>
<defs>
<clipPath id="clip0_1_105">
<rect width="56.8182" height="50" fill="white"/>
</clipPath>
</defs>
</svg>
