<svg width="50" height="50" viewBox="0 0 50 50" fill="none" xmlns="http://www.w3.org/2000/svg">
<path d="M34.0419 33.6812C35.7717 33.5051 37.0841 32.0391 37.0244 30.2795C36.9648 28.5203 35.4734 27.1128 33.6839 27.1128H33.5647C31.7153 27.1714 30.2839 28.6962 30.3436 30.5142C30.4033 31.3939 30.7611 32.1562 31.298 32.6841C29.2698 36.6134 26.168 39.487 21.5153 41.8916C18.3537 43.5336 15.0731 44.1201 11.7924 43.7097C9.10809 43.3578 7.02033 42.185 5.70783 40.2494C3.79912 37.3758 3.62023 34.2675 5.23083 31.1594C6.36425 28.9308 8.15356 27.2886 9.28698 26.4675C9.0484 25.7051 8.69042 24.415 8.51153 23.4767C-0.137821 29.6345 0.757016 37.9623 3.38165 41.8916C5.35003 44.8239 9.34667 46.642 13.7608 46.642C14.9537 46.642 16.1467 46.5245 17.3398 46.2316C24.9752 44.7653 30.7613 40.3081 34.0419 33.6812ZM44.5405 26.4091C40.007 21.1895 33.3261 18.3159 25.6908 18.3159H24.7366C24.1997 17.2603 23.0662 16.5564 21.8136 16.5564H21.6942C19.8452 16.6152 18.4137 18.1398 18.4733 19.958C18.533 21.7173 20.0241 23.1248 21.8136 23.1248H21.9328C23.2452 23.0662 24.3786 22.2452 24.8558 21.1308H25.9294C30.463 21.1308 34.7577 22.4209 38.6352 24.9428C41.6175 26.8781 43.765 29.4 44.958 32.4495C45.972 34.9127 45.9123 37.3172 44.8386 39.3698C43.1684 42.478 40.365 44.1787 36.6666 44.1787C34.2805 44.1787 32.0139 43.475 30.8208 42.9472C30.1647 43.5336 28.9716 44.4719 28.1364 45.0586C30.7016 46.2314 33.3261 46.8766 35.8314 46.8766C41.5578 46.8766 45.7931 43.7681 47.4037 40.66C49.1334 37.2584 49.0141 31.3939 44.5405 26.4091ZM14.238 34.678C14.2977 36.4373 15.7889 37.8447 17.5784 37.8447H17.6978C19.5469 37.7862 20.9784 36.2614 20.9187 34.4434C20.8592 32.6839 19.3678 31.2766 17.5784 31.2766H17.4592C17.3398 31.2766 17.1608 31.2766 17.0417 31.335C14.5959 27.3472 13.5819 23.0075 13.9399 18.3158C14.1783 14.797 15.3714 11.7473 17.4592 9.22546C19.1889 7.05554 22.5294 5.99993 24.7962 5.94143C31.1191 5.82406 33.8031 13.5653 33.9822 16.6736C34.7577 16.8495 36.07 17.2601 36.9648 17.5534C36.2489 8.05284 30.2839 3.12653 24.5577 3.12653C19.1889 3.12653 14.238 6.93854 12.2694 12.5685C9.52558 20.0752 11.3151 27.2886 14.6555 32.9773C14.3574 33.3878 14.1783 34.0328 14.238 34.678Z" fill="#764ABC"/>
</svg>
