<svg width="56" height="50" viewBox="0 0 56 50" fill="none" xmlns="http://www.w3.org/2000/svg">
<path d="M46.2755 27.2747C44.6779 27.2768 43.1017 27.6421 41.6661 28.343C41.2166 27.5971 40.8695 26.7941 40.6341 25.9557C40.4989 25.2984 40.4676 24.624 40.5414 23.9571C40.6967 23.2232 40.8982 22.4999 41.1446 21.7914C41.1356 21.6987 41.0338 21.2609 40.0109 21.2463C38.988 21.2318 38.1068 21.4408 38.0124 21.7115C37.8347 22.2059 37.692 22.7123 37.5854 23.2267C36.7388 25.3152 35.6968 27.3191 34.4731 29.2115C33.7876 28.0876 33.5056 26.7635 33.6737 25.4578C33.829 24.724 34.0305 24.0006 34.2769 23.2921C34.2678 23.1995 34.1661 22.7616 33.1432 22.7471C32.1203 22.7325 31.2391 22.9415 31.1446 23.2122C31.0502 23.4829 30.9303 24.1206 30.7177 24.7275C30.5051 25.3343 28.0233 30.8793 27.3728 32.3092C27.0385 33.036 26.7497 33.6283 26.5462 34.028C26.5365 34.0539 26.5243 34.0789 26.5098 34.1025C26.3281 34.4458 26.2318 34.633 26.2318 34.633V34.6421C26.0919 34.8928 25.943 35.1253 25.8685 35.1253C25.7385 34.6063 25.7448 34.0624 25.8866 33.5465C26.25 31.6224 27.1403 28.6319 27.1312 28.5283C27.1312 28.472 27.2983 27.9524 26.5552 27.6835C26.3829 27.6015 26.1894 27.5749 26.0013 27.6074C25.8132 27.64 25.6399 27.73 25.5051 27.8652C25.4397 27.8652 25.3943 28.0232 25.3943 28.0232C25.3943 28.0232 26.2028 24.6602 23.8518 24.6602C22.9362 24.8444 22.0668 25.2098 21.2945 25.7349C20.5223 26.26 19.8629 26.9343 19.355 27.718C18.7228 28.0614 17.3765 28.7954 15.9357 29.5857C15.3906 29.8928 14.8201 30.1998 14.2914 30.4942C14.2551 30.4578 14.2169 30.4106 14.1806 30.3743C11.3191 27.3256 6.05924 25.1744 6.28635 21.0955C6.36993 19.6094 6.88047 15.7067 16.3863 10.9666C24.2097 7.11117 30.4361 8.17949 31.5135 10.5487C33.056 13.9317 28.1777 20.2126 20.0945 21.1228C19.2002 21.3042 18.2767 21.2823 17.392 21.0587C16.5074 20.8351 15.6843 20.4156 14.9837 19.831C14.5567 19.3659 14.4913 19.3386 14.3332 19.4313C14.0734 19.5712 14.2406 19.9891 14.3332 20.2307C14.6416 20.7888 15.0587 21.2794 15.5598 21.6735C16.061 22.0676 16.6361 22.3573 17.2511 22.5254C20.431 23.2126 23.7465 22.884 26.7297 21.5861C31.6352 19.6911 35.4506 14.4222 34.3314 10.0091C33.2068 5.5305 25.774 4.0534 18.7391 6.55703C14.3328 8.03972 10.2613 10.3752 6.75692 13.4302C2.88156 17.0548 2.26927 20.2035 2.52 21.5243C3.42843 26.2082 9.8801 29.2551 12.4619 31.5171C12.331 31.5916 12.2111 31.657 12.1094 31.7115C10.8176 32.3528 5.89391 34.9273 4.66026 37.649C3.26673 40.7376 4.88374 42.9451 5.95205 43.2431C7.5618 43.6284 9.2517 43.5015 10.7858 42.88C12.32 42.2585 13.6217 41.1736 14.5095 39.7765C15.2654 38.6177 15.73 37.2934 15.8639 35.9164C15.9977 34.5393 15.7967 33.1503 15.278 31.8677C15.2692 31.847 15.2569 31.8279 15.2417 31.8114L16.2537 31.2173C16.9132 30.8267 17.5636 30.4651 18.1214 30.1671C17.7432 31.2581 17.5211 32.397 17.4619 33.5501C17.3334 35.3175 17.8743 37.0686 18.9771 38.4557C19.1449 38.6001 19.3397 38.7098 19.5503 38.7784C19.7608 38.847 19.9828 38.8732 20.2035 38.8554C21.2936 38.8554 21.7933 37.9469 22.3401 36.8677C23.0087 35.5487 23.6119 34.0152 23.6119 34.0152C23.6119 34.0152 22.8598 38.1595 24.9037 38.1595C25.6468 38.1595 26.399 37.1929 26.7351 36.706V36.7151C26.7351 36.7151 26.7533 36.6878 26.7914 36.6224L26.9114 36.428V36.4099C27.2093 35.8902 27.8779 34.7093 28.8717 32.7489C30.1544 30.2216 31.3899 27.0621 31.3899 27.0621C31.5091 27.7565 31.6736 28.4423 31.8823 29.1152C32.1815 29.9308 32.5354 30.7254 32.9415 31.4934C32.6435 31.9113 32.4582 32.1439 32.4582 32.1439L32.4673 32.153C32.2257 32.4691 31.9659 32.8125 31.677 33.1468C30.8175 34.0917 30.02 35.0913 29.2896 36.1392C29.1811 36.3152 29.1438 36.5259 29.1853 36.7285C29.2268 36.9311 29.3441 37.1102 29.5131 37.2293C29.8956 37.4283 30.3315 37.5002 30.7576 37.4346C31.3998 37.3983 32.0312 37.254 32.6254 37.0076C33.1995 36.8056 33.7412 36.521 34.2333 36.1628C34.7406 35.8113 35.149 35.3352 35.4191 34.7803C35.6893 34.2254 35.8121 33.6103 35.7758 32.9942C35.7187 32.2181 35.5204 31.4589 35.1908 30.754C35.2834 30.6232 35.3725 30.4942 35.4597 30.3634C36.4926 28.8215 37.4236 27.2138 38.2467 25.5505C38.3659 26.2448 38.5304 26.9307 38.7391 27.6035C38.9859 28.3084 39.2897 28.992 39.6475 29.6475C38.4592 30.5618 37.5232 31.7635 36.9277 33.1395C36.3427 34.831 36.7969 35.5923 37.6544 35.7685C38.1237 35.8009 38.5929 35.7048 39.0116 35.4905C39.6273 35.2882 40.2073 34.9902 40.7304 34.6075C41.2819 34.2821 41.7438 33.8246 42.0746 33.2762C42.4054 32.7278 42.5947 32.1059 42.6254 31.4662C42.5841 30.8277 42.44 30.2 42.1984 29.6075C43.7666 28.9949 45.4668 28.7996 47.133 29.0407C51.5553 29.5603 52.4292 32.3201 52.262 33.4829C52.1836 33.8951 52.0179 34.2858 51.776 34.6286C51.534 34.9715 51.2215 35.2585 50.8594 35.4705C50.5523 35.665 50.4506 35.7304 50.4779 35.8703C50.5142 36.0756 50.6595 36.0647 50.923 36.0283C51.5895 35.8212 52.1775 35.4169 52.6096 34.8687C53.0416 34.3205 53.2973 33.6543 53.343 32.9578C53.4829 30.2325 50.8812 27.2438 46.2809 27.2711L46.2755 27.2747ZM12.1548 38.7718C10.6868 40.3706 8.64282 40.9738 7.75983 40.4633C6.81142 39.9182 7.18388 37.5563 8.98621 35.863C10.0553 34.9006 11.2109 34.0388 12.4382 33.2885C12.6526 33.1577 12.9688 32.9724 13.3467 32.7434L13.4484 32.6871L13.6719 32.5472C13.9939 33.6261 14.0231 34.7711 13.7565 35.865C13.4899 36.9588 12.9371 37.9621 12.1548 38.7718ZM22.8398 31.5043C22.3292 32.7489 21.2609 35.9375 20.6105 35.7594C20.0527 35.6104 19.7021 33.194 20.4997 30.8067C20.9024 29.6574 21.489 28.5812 22.2366 27.6199C23.036 26.7278 23.919 26.4298 24.1316 26.7932C23.9376 28.4191 23.5022 30.0069 22.8398 31.5043ZM31.657 35.7231C31.4426 35.8339 31.2391 35.9048 31.1465 35.8539C31.0811 35.8176 31.2391 35.6722 31.2391 35.6722C31.2391 35.6722 32.3456 34.4822 32.7816 33.9444C33.0324 33.6283 33.3267 33.2576 33.6465 32.8379V32.9578C33.6465 34.3786 32.2711 35.3361 31.6588 35.7267L31.657 35.7231ZM38.4593 34.1715C38.3013 34.0607 38.3285 33.6882 38.859 32.5272C39.2279 31.7816 39.7433 31.118 40.3743 30.5759C40.471 30.8509 40.5214 31.1401 40.5233 31.4317C40.5304 32.0522 40.332 32.6576 39.959 33.1536C39.586 33.6495 39.0593 34.0081 38.4611 34.1733L38.4593 34.1715Z" fill="#CD6799"/>
</svg>
