<svg width="193" height="212" viewBox="0 0 193 212" fill="none" xmlns="http://www.w3.org/2000/svg">
<path d="M159.5 92.5H97.9999C97.4476 92.5 96.9999 92.0523 96.9999 91.5V46.5M159.5 92.5C160.956 92.5 164.085 92.5 164.462 92.5C164.488 92.5 164.513 92.501 164.538 92.5029C179.43 93.641 183.233 99.7384 183 119C183 128.037 183 154.357 183 176.757C182.273 197.518 176.043 202.939 155 202H31.9998C14.832 201.915 9.82726 196.855 9.49985 178.5V139M159.5 92.5V42C159.116 16.1998 151.102 9.20982 123.5 9.5C105.499 9.5 92.5027 9.5 71.9998 9.5C37.0328 8.86642 27.1432 17.2292 25.4998 46.5C25.4998 60.2661 25.4998 76.6582 25.4998 93.5C25.4998 136.444 70.5605 131.473 96.0205 131.496C96.5702 131.497 96.9999 131.944 96.9999 132.494V172.5" stroke="white" stroke-width="20"/>
</svg>
