<svg width="50" height="50" viewBox="0 0 50 50" fill="none" xmlns="http://www.w3.org/2000/svg">
<path d="M41.4066 23.4369C43.5638 23.4369 45.3125 21.6881 45.3125 19.5309C45.3125 17.3737 43.5636 15.625 41.4064 15.625C39.2491 15.625 37.5 17.3739 37.5 19.5312V23.4369H41.4066ZM30.4688 23.4369C32.6261 23.4369 34.375 21.688 34.375 19.5306V8.59375C34.375 6.43639 32.6261 4.6875 30.4688 4.6875C28.3114 4.6875 26.5625 6.43639 26.5625 8.59375V19.5306C26.5625 21.688 28.3114 23.4369 30.4688 23.4369Z" fill="#2EB67D"/>
<path d="M8.59342 26.5631C6.43623 26.5631 4.6875 28.3119 4.6875 30.469C4.6875 32.6262 6.43641 34.375 8.59358 34.375C10.7509 34.375 12.5 32.6261 12.5 30.4687V26.5631H8.59342ZM19.5312 26.5631C17.3739 26.5631 15.625 28.312 15.625 30.4694V41.4062C15.625 43.5636 17.3739 45.3125 19.5312 45.3125C21.6886 45.3125 23.4375 43.5636 23.4375 41.4062V30.4694C23.4375 28.312 21.6886 26.5631 19.5312 26.5631Z" fill="#E01E5A"/>
<path d="M26.5631 41.4066C26.5631 43.5638 28.3119 45.3125 30.469 45.3125C32.6262 45.3125 34.375 43.5636 34.375 41.4064C34.375 39.2491 32.6261 37.5 30.4687 37.5H26.5631V41.4066ZM26.5631 30.4688C26.5631 32.6261 28.312 34.375 30.4694 34.375H41.4062C43.5636 34.375 45.3125 32.6261 45.3125 30.4688C45.3125 28.3114 43.5636 26.5625 41.4062 26.5625H30.4694C28.312 26.5625 26.5631 28.3114 26.5631 30.4688Z" fill="#ECB22E"/>
<path d="M23.4369 8.59342C23.4369 6.43623 21.6881 4.6875 19.5309 4.6875C17.3737 4.6875 15.625 6.43641 15.625 8.59358C15.625 10.751 17.3739 12.5 19.5312 12.5H23.4369V8.59342ZM23.4369 19.5312C23.4369 17.3739 21.688 15.625 19.5306 15.625H8.59375C6.43639 15.625 4.6875 17.3739 4.6875 19.5312C4.6875 21.6886 6.43639 23.4375 8.59375 23.4375H19.5306C21.688 23.4375 23.4369 21.6886 23.4369 19.5312Z" fill="#36C5F0"/>
</svg>
