<svg width="50" height="50" viewBox="0 0 50 50" fill="none" xmlns="http://www.w3.org/2000/svg">
<path d="M24.1327 46.5932C22.2145 46.2116 20.5584 44.8998 19.7533 43.1241C19.3992 42.343 19.2484 41.605 19.2511 40.6639C19.2582 37.9593 20.9589 35.7009 23.601 34.8867C24.0877 34.7367 24.4089 34.6971 25.1552 34.6951C25.6725 34.6939 26.2431 34.7211 26.4231 34.756L26.7503 34.8194L27.153 34.0374C27.9753 32.4407 29.2568 31.1863 30.9136 30.3566C32.2803 29.6721 33.1392 29.473 34.7256 29.473C35.8368 29.473 36.0946 29.4998 36.8115 29.6898C39.9074 30.5101 42.3205 32.9397 43.0799 36.0014C43.2701 36.768 43.365 38.4869 43.2543 39.1612L43.1788 39.6216L43.6124 39.7187C44.699 39.9618 45.6368 40.721 46.1163 41.7457C46.5905 42.7589 46.5037 44.07 45.899 45.0279C45.5903 45.5168 44.9853 46.0601 44.4804 46.3019C44.2216 46.4257 43.9459 46.5606 43.8678 46.6016C43.6924 46.6937 24.5969 46.6855 24.1327 46.5932ZM43.9845 45.4629C44.5217 45.1958 45.0531 44.5985 45.2739 44.0135C45.732 42.7999 45.1208 41.3898 43.9015 40.8473C43.5936 40.7103 43.3636 40.6786 42.7215 40.6847C42.2828 40.6888 41.924 40.6611 41.924 40.6231C41.924 40.5852 42.0055 40.2292 42.105 39.8319C42.3598 38.8158 42.3572 37.1955 42.0991 36.2059C41.5303 34.0238 40.0555 32.2038 38.0383 31.1945C37.1519 30.7509 36.3088 30.5481 35.1568 30.501C33.4521 30.4315 32.262 30.7001 30.9505 31.4505C29.4211 32.3255 28.1028 33.9111 27.5918 35.4901C27.4936 35.7938 27.3744 36.0418 27.327 36.0412C27.2794 36.0407 27.0016 35.9614 26.7092 35.8652C25.8956 35.5974 24.5081 35.6136 23.6961 35.9005C22.8788 36.1893 22.2904 36.5594 21.6778 37.1701C20.7595 38.0855 20.2495 39.3331 20.2495 40.6639C20.2495 42.6401 21.338 44.3726 23.109 45.215C24.1269 45.6991 23.7747 45.6845 34.112 45.6684L43.6006 45.6537L43.9845 45.4629ZM16.6072 41.6381C13.1744 41.1729 10.5321 40.3109 8.57767 39.0187C7.77124 38.4855 7.21445 37.8891 6.90052 37.2223L6.66666 36.7255L6.68808 23.2756L6.70951 9.8257L6.90481 9.45925C7.3985 8.53295 8.36106 7.74254 9.89356 7.00515C11.8313 6.07273 14.0659 5.48981 17.1797 5.10439C18.4621 4.94568 22.8167 4.97374 24.1327 5.14921C28.9788 5.79531 32.7395 7.37869 33.9383 9.27765C34.4106 10.026 34.3984 9.75472 34.3984 19.5324V28.5093L34.1326 28.5505C33.9864 28.5732 33.6552 28.6143 33.3965 28.6419C30.7278 28.9269 27.9603 30.7718 26.5417 33.2116L26.2512 33.711L25.1102 33.7649C23.762 33.8286 23.075 34.0013 22.05 34.5342C20.29 35.4492 19.0322 37.0356 18.5193 38.987C18.3776 39.5261 18.3357 39.9168 18.3328 40.7253L18.3269 41.7682L17.8749 41.7585C17.6263 41.7532 17.0548 41.699 16.6049 41.6381H16.6072ZM23.5857 29.241C22.9418 28.6945 22.3849 28.2209 22.3481 28.1885C22.3112 28.1562 22.4452 28.0337 22.6454 27.9163C23.0893 27.6562 23.6609 27.0335 23.9037 26.5456C24.4968 25.3535 24.4836 23.8706 23.8692 22.6907C23.1936 21.3929 21.7797 20.7122 20.1778 20.9133C19.3008 21.0234 18.7513 21.2694 18.1718 21.8115C17.2572 22.6671 16.9404 23.5066 16.9885 24.9474C17.0159 25.7666 17.045 25.9139 17.2793 26.4111C17.7836 27.4813 18.8378 28.2812 19.9118 28.4083C20.3158 28.4562 20.3509 28.4827 21.1537 29.3461L21.98 30.2346H23.3681H24.7564L23.5857 29.241ZM20.0827 26.4513C19.5202 26.1659 19.3065 25.6769 19.3065 24.6744C19.3065 24.0221 19.3381 23.8316 19.4984 23.5054C19.7549 22.9846 20.2663 22.6715 20.768 22.728C21.2614 22.7836 21.5179 22.9832 21.7789 23.5146C21.977 23.918 22.0056 24.0708 22.0033 24.7131C22.0033 25.5054 21.8602 25.9116 21.4617 26.2823C21.0454 26.6695 20.6165 26.7221 20.0827 26.4513ZM14.4224 28.35C15.9016 28.0088 16.705 26.77 16.2791 25.4876C16.0646 24.8418 15.6113 24.4384 14.5042 23.9082C13.9928 23.6634 13.5356 23.413 13.488 23.3519C13.3018 23.1127 13.3023 22.9543 13.488 22.7367C13.7761 22.4018 14.432 22.3857 15.3199 22.6919L15.9973 22.9255L15.9741 22.0215L15.9509 21.1175L15.501 21.0105C14.8206 20.8488 13.35 20.8567 12.7715 21.0252C11.6114 21.3631 11 22.1214 11.0039 23.2176C11.0098 24.3458 11.5161 24.8806 13.306 25.6401C14.0633 25.9615 14.15 26.5619 13.4731 26.7971C13.1598 26.9058 13.0706 26.9037 12.5749 26.7757C12.2722 26.6976 11.8129 26.5239 11.5542 26.3897L11.0839 26.1458V27.1245V28.1032L11.5542 28.2341C11.8129 28.3061 12.0614 28.3779 12.1064 28.3936C12.2933 28.4587 14.0965 28.4248 14.4206 28.35H14.4224ZM30.2267 27.4943V26.6354H28.9179H27.6092V23.8133V20.9913H26.5458H25.4824V24.6722V28.3532H27.8546H30.2267V27.4943ZM23.9282 12.7672C26.0612 12.52 27.8116 12.0729 28.9179 11.4926C29.6447 11.1114 29.819 10.9741 30.0984 10.5623C30.9624 9.28916 29.0278 8.00901 25.2778 7.37259C21.7548 6.77468 17.112 6.90992 14.1405 7.69704C8.00922 9.32115 10.4262 12.3045 18.3498 12.8927C19.6502 12.9892 22.5814 12.9233 23.9282 12.7672Z" fill="#00BCF2"/>
</svg>
