<svg width="50" height="50" viewBox="0 0 50 50" fill="none" xmlns="http://www.w3.org/2000/svg">
<g clip-path="url(#clip0_81_175)">
<path d="M48.8024 0.390625H15.94V16.8676H32.1099C32.6859 16.8676 33.1533 17.3349 33.1533 17.911V33.8576H49.8458V1.43593C49.8463 1.15888 49.7366 0.892992 49.5408 0.696904C49.3451 0.500816 49.0794 0.390625 48.8024 0.390625Z" fill="#8E75FF"/>
<path opacity="0.405" d="M15.9381 0.390625V16.8676H0.521743C0.309901 16.8672 0.119238 16.739 0.0389785 16.5429C-0.0412808 16.3469 0.00473969 16.1218 0.155504 15.973L15.9381 0.390625ZM34.0422 49.4571C33.8921 49.6046 33.6682 49.6476 33.4742 49.5664C33.2801 49.4852 33.1536 49.2956 33.1533 49.0852V33.8576H49.8458L34.0422 49.4552V49.4571Z" fill="#8E75FF"/>
<path opacity="0.405" d="M15.9381 16.8676H32.6325C32.9187 16.8676 33.1533 17.1003 33.1533 17.3883V33.8577H16.9834C16.4072 33.8577 15.94 33.3905 15.94 32.8143V16.8676H15.9381Z" fill="#8E75FF"/>
</g>
<defs>
<clipPath id="clip0_81_175">
<rect width="50" height="50" fill="white"/>
</clipPath>
</defs>
</svg>
