<svg width="50" height="50" viewBox="0 0 50 50" fill="none" xmlns="http://www.w3.org/2000/svg">
<path d="M7 8.90198V20.5212C11.8656 18.0282 18.3669 15.5228 26.5483 12.9946C31.7907 11.3771 36.8573 10.017 41.7512 8.90198H7ZM43 11.3795C38.2558 12.2471 34.0011 13.2681 30.2566 14.4215C25.97 15.7464 22.519 17.0858 19.909 18.4514C17.2957 19.7926 16.0817 20.8773 16.2517 21.713C16.405 22.4508 17.4995 22.7858 19.5395 22.7165C20.5895 22.6921 22.2896 22.55 24.6496 22.2931C27.0096 22.0363 30.0565 21.6649 33.7865 21.1798C37.4838 20.7101 40.546 20.3924 43 20.2076V11.3795ZM32.4612 26.1192C31.4112 26.1355 29.9658 26.2343 28.1158 26.4014C26.2591 26.5727 23.9622 26.8192 21.2088 27.1698C16.9355 27.7323 13.3787 28.1702 10.5554 28.4556C9.20108 28.5962 8.02448 28.6837 7 28.7535V38.1775C12.6074 37.1689 17.68 35.9664 22.2028 34.571C26.6462 33.2013 30.0612 31.8647 32.4612 30.5725C34.8646 29.2802 35.9867 28.1839 35.8 27.2952C35.6433 26.5289 34.5179 26.1396 32.4612 26.1192ZM43 29.4278C38.0725 31.803 31.9567 34.1324 24.6496 36.3899C17.8464 38.4889 11.9698 39.9907 7 40.9216V41H43V29.4278ZM8.50372 31.4035C8.52208 31.4002 8.53614 31.4033 8.55469 31.4035C8.64776 31.4074 8.74698 31.4433 8.80956 31.529C8.90513 31.65 8.92994 31.8441 8.87327 31.9994C8.81165 32.1781 8.64808 32.2858 8.49097 32.2503C8.31755 32.2193 8.18308 32.0095 8.19788 31.7955C8.2029 31.5941 8.34188 31.4285 8.50372 31.4035ZM9.77805 31.4035C9.85932 31.4076 9.93491 31.4278 9.99469 31.4976C10.1076 31.6118 10.1521 31.8171 10.0966 31.9837C10.0447 32.1549 9.90235 32.2821 9.75257 32.266C9.62392 32.2595 9.49736 32.1608 9.44673 32.0151C9.37671 31.8256 9.43375 31.5694 9.5869 31.4663C9.64401 31.4232 9.71094 31.4027 9.77805 31.4035ZM8.55469 34.179C8.70651 34.173 8.84215 34.3045 8.88602 34.4769C8.93248 34.6687 8.85856 34.9099 8.70761 34.9944C8.55599 35.088 8.35684 35.0287 8.26159 34.8532C8.16465 34.682 8.17805 34.4236 8.31257 34.2888C8.37849 34.2163 8.46614 34.1767 8.55469 34.179ZM9.77805 34.179C9.8988 34.1709 10.0061 34.2649 10.0712 34.3828C10.1648 34.5627 10.1256 34.8221 9.98195 34.9473C9.8378 35.0822 9.61248 35.0596 9.4977 34.8846C9.37905 34.7107 9.38687 34.4147 9.53593 34.2731C9.60061 34.2073 9.69362 34.1757 9.77805 34.179Z" fill="#809CC8"/>
</svg>
