<svg width="42" height="50" viewBox="0 0 42 50" fill="none" xmlns="http://www.w3.org/2000/svg">
<g clip-path="url(#clip0_1_110)">
<path d="M38.9093 6.60824C34.2716 -0.0295274 25.1122 -1.99699 18.4894 2.22257L6.85826 9.63564C3.68117 11.6344 1.49283 14.8789 0.829865 18.5734C0.275033 21.6512 0.762698 24.8261 2.21565 27.5954C1.22005 29.1057 0.541005 30.8022 0.21956 32.5823C-0.449811 36.3477 0.425791 40.2241 2.64869 43.3363C7.28739 49.9747 16.4469 51.9413 23.0686 47.7219L34.6998 40.3089C37.8771 38.3103 40.0655 35.0658 40.7282 31.3711C41.2829 28.2934 40.7956 25.1185 39.3434 22.3488C40.3388 20.8386 41.0175 19.1422 41.3387 17.3622C42.0085 13.5968 41.1328 9.72022 38.9095 6.60824" fill="#FF3E00"/>
<path d="M17.3521 43.9678C13.6018 44.9429 9.64149 43.4749 7.43287 40.291C6.09542 38.419 5.56857 36.0871 5.97129 33.822C6.0388 33.4538 6.1317 33.0908 6.24932 32.7355L6.46843 32.0674L7.06451 32.5052C8.4411 33.5167 9.98028 34.2857 11.6157 34.7791L12.0481 34.9103L12.0083 35.3419C11.9555 35.9558 12.1217 36.5687 12.4776 37.0718C13.1422 38.0308 14.3346 38.4734 15.464 38.1802C15.7169 38.1127 15.9579 38.0067 16.1787 37.8662L27.8136 30.4518C28.3892 30.0893 28.7859 29.5015 28.9067 28.8321C29.0273 28.1494 28.8686 27.4468 28.4662 26.8823C27.8012 25.923 26.6085 25.4802 25.4786 25.7732C25.226 25.8407 24.9854 25.9466 24.7649 26.087L20.3251 28.9172C19.595 29.3814 18.7983 29.7313 17.9625 29.9548C14.2123 30.9298 10.252 29.4618 8.04344 26.278C6.70594 24.406 6.17909 22.0741 6.58186 19.809C6.98057 17.5867 8.29708 15.6352 10.2084 14.4333L21.8422 7.01825C22.5726 6.5533 23.3699 6.20299 24.2064 5.9795C27.9566 5.00445 31.9168 6.47242 34.1254 9.65624C35.4628 11.5282 35.9897 13.8601 35.587 16.1253C35.5192 16.4934 35.4263 16.8564 35.309 17.2118L35.0898 17.8799L34.4941 17.4428C33.1176 16.4307 31.5783 15.6613 29.9426 15.1678L29.5101 15.0366L29.55 14.605C29.6024 13.9911 29.4362 13.3784 29.0807 12.8752C28.4161 11.9161 27.2237 11.4736 26.0942 11.7667C25.8414 11.8343 25.6004 11.9402 25.3796 12.0808L13.7447 19.4955C13.1691 19.8577 12.7727 20.4454 12.6524 21.1147C12.5311 21.7974 12.6895 22.5002 13.0921 23.0648C13.7571 24.024 14.9498 24.4668 16.0797 24.1739C16.3325 24.1062 16.5735 24.0002 16.7943 23.8598L21.2335 21.0306C21.9632 20.5658 22.7599 20.2156 23.5958 19.9923C27.346 19.0172 31.3063 20.4852 33.5149 23.6691C34.8524 25.541 35.3792 27.8729 34.9765 30.1381C34.5775 32.3605 33.2611 34.3122 31.3499 35.5146L19.716 42.929C18.9857 43.394 18.1884 43.7443 17.3519 43.9678" fill="white"/>
</g>
<defs>
<clipPath id="clip0_1_110">
<rect width="41.5584" height="50" fill="white"/>
</clipPath>
</defs>
</svg>
