<svg width="50" height="50" viewBox="0 0 50 50" fill="none" xmlns="http://www.w3.org/2000/svg">
<g clip-path="url(#clip0_77_104)">
<path d="M50 25C50 38.8083 38.8083 50 25 50C11.1917 50 0 38.8083 0 25C0 11.1917 11.1917 0 25 0C38.8083 0 50 11.1917 50 25ZM35.9312 9.24792C33.3896 9.33542 31.175 10.7375 29.525 12.6729C27.6958 14.7979 26.4812 17.3167 25.6062 19.8833C24.0375 18.6042 22.8312 16.9375 20.3167 16.2146C18.3042 15.5958 16.1187 15.9958 14.4562 17.2854C13.6021 17.95 12.9771 18.8625 12.6625 19.8979C11.9125 22.3479 13.4562 24.5333 14.1604 25.3146L15.6958 26.9604C16.0083 27.2812 16.7771 28.1271 16.4021 29.3312C16 30.6458 14.4208 31.4917 12.7937 30.9958C12.0687 30.775 11.0271 30.2333 11.2646 29.475C11.3583 29.1625 11.5812 28.9271 11.7021 28.6604C11.8104 28.4312 11.8625 28.2562 11.9 28.1562C12.1937 27.1875 11.7896 25.9271 10.7521 25.6083C9.78333 25.3104 8.79583 25.5458 8.40833 26.7875C7.97292 28.2042 8.65208 30.7729 12.2833 31.8896C16.5333 33.1979 20.1271 30.8812 20.6354 27.8646C20.9542 25.975 20.1042 24.5688 18.5396 22.7667L17.2646 21.3563C16.4917 20.5854 16.2292 19.2687 17.0271 18.2625C17.7021 17.4104 18.6625 17.0458 20.2333 17.4729C22.5312 18.0979 23.5542 19.6875 25.2583 20.9729C24.5542 23.2854 24.0917 25.6042 23.6771 27.6854L23.4208 29.2396C22.2021 35.6354 21.2687 39.15 18.85 41.1687C18.3625 41.5146 17.6625 42.0354 16.6146 42.0729C16.0604 42.0833 15.8812 41.7062 15.875 41.5375C15.8625 41.1542 16.1875 40.9729 16.4062 40.8021C16.7271 40.6292 17.2187 40.3354 17.1812 39.3979C17.1479 38.2896 16.2312 37.3271 14.9021 37.3708C13.9083 37.4062 12.3958 38.3396 12.4521 40.05C12.5104 41.8208 14.1583 43.1437 16.6437 43.0583C17.9729 43.0146 20.9396 42.4729 23.8604 38.9979C27.2625 35.0167 28.2146 30.4542 28.9312 27.1104L29.7292 22.7021C30.1729 22.7521 30.6479 22.7896 31.1667 22.8021C35.4 22.8937 37.5187 20.6979 37.55 19.1021C37.5708 18.1354 36.9167 17.1833 36 17.2062C35.1958 17.225 34.5042 17.7854 34.3208 18.5687C34.125 19.4604 35.6667 20.2625 34.4625 21.0458C33.6083 21.6 32.075 21.9875 29.9125 21.6708L30.3042 19.5C31.1083 15.3833 32.0938 10.3187 35.8479 10.1937C36.1229 10.1792 37.1229 10.2062 37.1458 10.8667C37.1521 11.0854 37.1 11.1458 36.8396 11.6479C36.6 11.9708 36.4771 12.3667 36.4896 12.7667C36.525 13.8167 37.3229 14.5083 38.4833 14.4667C40.0312 14.4187 40.4729 12.9083 40.4521 12.1354C40.3854 10.3146 38.4687 9.16875 35.9312 9.24792Z" fill="black"/>
</g>
<defs>
<clipPath id="clip0_77_104">
<rect width="50" height="50" fill="white"/>
</clipPath>
</defs>
</svg>
