<svg width="19" height="30" viewBox="0 0 19 30" fill="none" xmlns="http://www.w3.org/2000/svg">
<path d="M0.505496 13.0906L18.7251 0.0324553C18.7546 0.0111954 18.7894 0 18.8242 0C18.8527 0 18.8802 0.007043 18.9063 0.0222645C18.9643 0.053714 19 0.11674 19 0.185677V5.78091C19 5.8418 18.9715 5.89866 18.9232 5.93313L6.27201 14.9991L18.9232 24.0681C18.9715 24.1016 19 24.1593 19 24.2212V29.8145C19 29.8834 18.9643 29.9464 18.9063 29.9787C18.8802 29.992 18.8526 30 18.8242 30C18.7894 30 18.7546 29.9889 18.7251 29.9675L0.505496 16.9084C0.457089 16.8748 0.428572 16.817 0.428572 16.7561V13.2437C0.428572 13.182 0.457089 13.1252 0.505496 13.0906Z" fill="#0066FF"/>
</svg>
