<svg width="55" height="50" viewBox="0 0 55 50" fill="none" xmlns="http://www.w3.org/2000/svg">
<path fill-rule="evenodd" clip-rule="evenodd" d="M27.381 10.2084C20.7664 10.2084 16.6344 13.4946 14.9802 20.0695C17.4603 16.7833 20.3547 15.5506 23.6607 16.3716C25.5481 16.8403 26.8973 18.2019 28.3879 19.7074C30.8209 22.1603 33.6359 25 39.7817 25C46.3963 25 50.5283 21.7138 52.1825 15.1389C49.7024 18.4251 46.8105 19.6578 43.502 18.8368C41.6146 18.3681 40.2654 17.0065 38.7723 15.501C36.3418 13.0457 33.5293 10.2084 27.381 10.2084ZM14.9802 25C8.36558 25 4.23363 28.2863 2.57937 34.8612C5.05953 31.5725 7.95387 30.3423 11.2599 31.1632C13.1473 31.632 14.4965 32.9936 15.9896 34.499C18.4201 36.9519 21.2351 39.7917 27.3834 39.7917C33.998 39.7917 38.13 36.5055 39.7842 29.9306C37.3041 33.2168 34.4097 34.4494 31.1037 33.6285C29.2163 33.1598 27.8671 31.7982 26.3765 30.2927C23.941 27.8398 21.126 25 14.9802 25Z" fill="#38BDF8"/>
</svg>
