<svg width="50" height="50" viewBox="0 0 50 50" fill="none" xmlns="http://www.w3.org/2000/svg">
<g clip-path="url(#clip0_46_9)">
<path d="M46.768 0.759644H2.95581C1.70477 0.759644 0.690613 1.77381 0.690613 3.02484V46.837C0.690613 48.088 1.70477 49.1022 2.95581 49.1022H46.768C48.019 49.1022 49.0332 48.088 49.0332 46.837V3.02484C49.0332 1.77381 48.019 0.759644 46.768 0.759644Z" fill="#3178C6"/>
<path fill-rule="evenodd" clip-rule="evenodd" d="M28.7379 38.327V43.6239C29.7003 44.099 30.726 44.4333 31.7835 44.6167C33.0055 44.8423 34.2459 44.9533 35.4886 44.9482C36.6997 44.9539 37.9081 44.8318 39.0936 44.5839C40.158 44.3688 41.1735 43.9591 42.0891 43.3753C42.9391 42.8266 43.6397 42.0756 44.1281 41.1896C45.0028 39.3548 45.1182 37.2491 44.4492 35.3298C44.1669 34.612 43.7463 33.9568 43.2113 33.4012C42.6371 32.8105 41.9847 32.3011 41.2724 31.8871C40.4524 31.4068 39.6004 30.9834 38.7224 30.6198C38.0318 30.3332 37.4102 30.0547 36.8577 29.7842C36.367 29.5492 35.8974 29.2725 35.4541 28.9572C35.1069 28.7137 34.8053 28.411 34.5632 28.0628C34.354 27.7467 34.2451 27.3748 34.2507 26.9958C34.2461 26.647 34.3433 26.3044 34.5304 26.01C34.7336 25.7019 35.0047 25.4444 35.3229 25.2572C35.7118 25.0282 36.135 24.8633 36.5763 24.7686C37.1181 24.6483 37.6719 24.5903 38.2269 24.596C38.6936 24.5976 39.1597 24.631 39.6219 24.6961C40.121 24.7636 40.6148 24.8657 41.0998 25.0017C41.5931 25.1384 42.0755 25.3116 42.5432 25.5197C42.997 25.7219 43.431 25.9659 43.8398 26.2483V21.3052C42.9888 20.9833 42.1063 20.7518 41.2068 20.6146C40.1207 20.4566 39.024 20.3821 37.9265 20.3919C36.7267 20.3854 35.5305 20.5216 34.3629 20.7976C33.3076 21.0388 32.3041 21.4674 31.4002 22.0632C30.5606 22.6225 29.8673 23.375 29.3785 24.2576C28.8604 25.2377 28.6041 26.3349 28.6343 27.443C28.5961 28.9085 29.0788 30.34 29.9966 31.4831C31.1226 32.7505 32.5424 33.7222 34.1316 34.3128C34.8567 34.6121 35.5329 34.905 36.1602 35.1916C36.7262 35.4435 37.2702 35.742 37.7866 36.0842C38.2031 36.3552 38.5689 36.697 38.8674 37.0943C39.1299 37.4545 39.2691 37.8899 39.2645 38.3356C39.2669 38.6696 39.1811 38.9984 39.0159 39.2887C38.8323 39.6006 38.5742 39.8622 38.2649 40.0501C37.8777 40.2861 37.4542 40.4564 37.0114 40.5542C36.4346 40.6831 35.8447 40.744 35.2538 40.7355C34.0941 40.7334 32.9437 40.5289 31.8543 40.1312C30.7162 39.7205 29.6608 39.1095 28.7379 38.327ZM19.8394 25.1398H26.7455V20.7769H7.48964V25.1398H14.3646V44.5701H19.8394V25.1398Z" fill="white"/>
</g>
<defs>
<clipPath id="clip0_46_9">
<rect width="49.7238" height="50" fill="white"/>
</clipPath>
</defs>
</svg>
