<svg width="50" height="50" viewBox="0 0 50 50" fill="none" xmlns="http://www.w3.org/2000/svg">
<rect width="50" height="50" fill="#B22234"/>
<path d="M0 5.66663L50 5.66667ZM50 13.3334L0 13.3333ZM0 21L50 21ZM50 28.6667L0 28.6666ZM0 36.3333L50 36.3334ZM50 44L0 44Z" fill="black"/>
<path d="M0 5.66663L50 5.66667M50 13.3334L0 13.3333M0 21L50 21M50 28.6667L0 28.6666M0 36.3333L50 36.3334M50 44L0 44" stroke="white" stroke-width="4"/>
<path d="M26.9737 0H0V26.6667H26.9737V0Z" fill="#3C3B6E"/>
<path d="M1.76624 0.666687L2.45123 3.56557L0.657898 1.77396H2.87458L1.08125 3.56557L1.76624 0.666687Z" fill="white"/>
<path d="M1.76624 6.27533L2.45123 9.17421L0.657898 7.3826H2.87458L1.08125 9.17421L1.76624 6.27533Z" fill="white"/>
<path d="M1.76624 11.8839L2.45123 14.7827L0.657898 12.9911H2.87458L1.08125 14.7827L1.76624 11.8839Z" fill="white"/>
<path d="M1.76624 17.4925L2.45123 20.3914L0.657898 18.5998H2.87458L1.08125 20.3914L1.76624 17.4925Z" fill="white"/>
<path d="M1.76624 23.1011L2.45123 26L0.657898 24.2084H2.87458L1.08125 26L1.76624 23.1011Z" fill="white"/>
<path d="M4.16492 3.47095L4.84991 6.36983L3.05658 4.57822H5.27326L3.47993 6.36983L4.16492 3.47095Z" fill="white"/>
<path d="M4.16492 9.07959L4.84991 11.9785L3.05658 10.1869H5.27326L3.47993 11.9785L4.16492 9.07959Z" fill="white"/>
<path d="M4.16492 14.6882L4.84991 17.5871L3.05658 15.7954H5.27326L3.47993 17.5871L4.16492 14.6882Z" fill="white"/>
<path d="M4.16492 20.2968L4.84991 23.1957L3.05658 21.4041H5.27326L3.47993 23.1957L4.16492 20.2968Z" fill="white"/>
<path d="M6.56369 0.666687L7.24869 3.56557L5.45535 1.77396H7.67204L5.8787 3.56557L6.56369 0.666687Z" fill="white"/>
<path d="M6.56369 6.27533L7.24869 9.17421L5.45535 7.3826H7.67204L5.8787 9.17421L6.56369 6.27533Z" fill="white"/>
<path d="M6.56369 11.8839L7.24869 14.7827L5.45535 12.9911H7.67204L5.8787 14.7827L6.56369 11.8839Z" fill="white"/>
<path d="M6.56369 17.4925L7.24869 20.3914L5.45535 18.5998H7.67204L5.8787 20.3914L6.56369 17.4925Z" fill="white"/>
<path d="M6.56369 23.1011L7.24869 26L5.45535 24.2084H7.67204L5.8787 26L6.56369 23.1011Z" fill="white"/>
<path d="M8.96238 3.47095L9.64737 6.36983L7.85403 4.57822H10.0707L8.27738 6.36983L8.96238 3.47095Z" fill="white"/>
<path d="M8.96238 9.07959L9.64737 11.9785L7.85403 10.1869H10.0707L8.27738 11.9785L8.96238 9.07959Z" fill="white"/>
<path d="M8.96238 14.6882L9.64737 17.5871L7.85403 15.7954H10.0707L8.27738 17.5871L8.96238 14.6882Z" fill="white"/>
<path d="M8.96238 20.2968L9.64737 23.1957L7.85403 21.4041H10.0707L8.27738 23.1957L8.96238 20.2968Z" fill="white"/>
<path d="M11.1791 0.666687L11.8641 3.56557L10.0708 1.77396H12.2875L10.4941 3.56557L11.1791 0.666687Z" fill="white"/>
<path d="M11.1791 6.27533L11.8641 9.17421L10.0708 7.3826H12.2875L10.4941 9.17421L11.1791 6.27533Z" fill="white"/>
<path d="M11.1791 11.8839L11.8641 14.7827L10.0708 12.9911H12.2875L10.4941 14.7827L11.1791 11.8839Z" fill="white"/>
<path d="M11.1791 17.4925L11.8641 20.3914L10.0708 18.5998H12.2875L10.4941 20.3914L11.1791 17.4925Z" fill="white"/>
<path d="M11.1791 23.1011L11.8641 26L10.0708 24.2084H12.2875L10.4941 26L11.1791 23.1011Z" fill="white"/>
<path d="M13.5779 3.47095L14.2629 6.36983L12.4695 4.57822H14.6862L12.8929 6.36983L13.5779 3.47095Z" fill="white"/>
<path d="M13.5779 9.07959L14.2629 11.9785L12.4695 10.1869H14.6862L12.8929 11.9785L13.5779 9.07959Z" fill="white"/>
<path d="M13.5779 14.6882L14.2629 17.5871L12.4695 15.7954H14.6862L12.8929 17.5871L13.5779 14.6882Z" fill="white"/>
<path d="M13.5779 20.2968L14.2629 23.1957L12.4695 21.4041H14.6862L12.8929 23.1957L13.5779 20.2968Z" fill="white"/>
<path d="M15.9766 0.666687L16.6616 3.56557L14.8683 1.77396H17.085L15.2916 3.56557L15.9766 0.666687Z" fill="white"/>
<path d="M15.9766 6.27533L16.6616 9.17421L14.8683 7.3826H17.085L15.2916 9.17421L15.9766 6.27533Z" fill="white"/>
<path d="M15.9766 11.8839L16.6616 14.7827L14.8683 12.9911H17.085L15.2916 14.7827L15.9766 11.8839Z" fill="white"/>
<path d="M15.9766 17.4925L16.6616 20.3914L14.8683 18.5998H17.085L15.2916 20.3914L15.9766 17.4925Z" fill="white"/>
<path d="M15.9766 23.1011L16.6616 26L14.8683 24.2084H17.085L15.2916 26L15.9766 23.1011Z" fill="white"/>
<path d="M18.3754 3.47095L19.0604 6.36983L17.267 4.57822H19.4837L17.6904 6.36983L18.3754 3.47095Z" fill="white"/>
<path d="M18.3754 9.07959L19.0604 11.9785L17.267 10.1869H19.4837L17.6904 11.9785L18.3754 9.07959Z" fill="white"/>
<path d="M18.3754 14.6882L19.0604 17.5871L17.267 15.7954H19.4837L17.6904 17.5871L18.3754 14.6882Z" fill="white"/>
<path d="M18.3754 20.2968L19.0604 23.1957L17.267 21.4041H19.4837L17.6904 23.1957L18.3754 20.2968Z" fill="white"/>
<path d="M20.592 0.666687L21.277 3.56557L19.4837 1.77396H21.7004L19.9071 3.56557L20.592 0.666687Z" fill="white"/>
<path d="M20.592 6.27533L21.277 9.17421L19.4837 7.3826H21.7004L19.9071 9.17421L20.592 6.27533Z" fill="white"/>
<path d="M20.592 11.8839L21.277 14.7827L19.4837 12.9911H21.7004L19.9071 14.7827L20.592 11.8839Z" fill="white"/>
<path d="M20.592 17.4925L21.277 20.3914L19.4837 18.5998H21.7004L19.9071 20.3914L20.592 17.4925Z" fill="white"/>
<path d="M20.592 23.1011L21.277 26L19.4837 24.2084H21.7004L19.9071 26L20.592 23.1011Z" fill="white"/>
<path d="M22.9908 3.47095L23.6758 6.36983L21.8824 4.57822H24.0991L22.3058 6.36983L22.9908 3.47095Z" fill="white"/>
<path d="M22.9908 9.07959L23.6758 11.9785L21.8824 10.1869H24.0991L22.3058 11.9785L22.9908 9.07959Z" fill="white"/>
<path d="M22.9908 14.6882L23.6758 17.5871L21.8824 15.7954H24.0991L22.3058 17.5871L22.9908 14.6882Z" fill="white"/>
<path d="M22.9908 20.2968L23.6758 23.1957L21.8824 21.4041H24.0991L22.3058 23.1957L22.9908 20.2968Z" fill="white"/>
<path d="M25.2074 0.666687L25.8924 3.56557L24.0991 1.77396H26.3157L24.5224 3.56557L25.2074 0.666687Z" fill="white"/>
<path d="M25.2074 6.27533L25.8924 9.17421L24.0991 7.3826H26.3157L24.5224 9.17421L25.2074 6.27533Z" fill="white"/>
<path d="M25.2074 11.8839L25.8924 14.7827L24.0991 12.9911H26.3157L24.5224 14.7827L25.2074 11.8839Z" fill="white"/>
<path d="M25.2074 17.4925L25.8924 20.3914L24.0991 18.5998H26.3157L24.5224 20.3914L25.2074 17.4925Z" fill="white"/>
<path d="M25.2074 23.1011L25.8924 26L24.0991 24.2084H26.3157L24.5224 26L25.2074 23.1011Z" fill="white"/>
</svg>
