<svg width="50" height="50" viewBox="0 0 50 50" fill="none" xmlns="http://www.w3.org/2000/svg">
<path d="M38.0638 5.90729C40.6546 7.22743 42.8798 10.6917 42.7682 15.3927C42.4296 21.185 38.23 26.1769 33.6606 30.7761C33.4048 25.1672 32.1852 21.5926 30.2809 16.5662C28.483 11.5006 33.7394 6.06943 38.0638 5.90729Z" fill="url(#paint0_linear_77_93)"/>
<path d="M24.0499 30.5789C25.441 28.8484 26.427 27.3074 27.1152 25.915C31.8287 28.3795 30.7165 27.9192 32.9898 30.545C32.9974 30.6266 33.0047 30.7081 33.0115 30.7894C33.2001 34.4301 30.5443 42.8466 20.0866 44C19.3627 38.3446 21.7161 33.5205 24.0499 30.5789Z" fill="url(#paint1_linear_77_93)"/>
<path d="M7.22038 9.42326C14.6715 6.47479 22.6907 9.49513 27.3204 15.7882C27.7682 16.3969 28.193 17.0292 28.5935 17.6801C29.317 22.2981 28.7653 24.8628 27.3573 26.2224C26.4314 25.7552 25.4436 25.341 24.3891 24.9579C21.9375 24.0673 19.6749 23.478 16.4436 22.5212C8.77051 20.4271 6.87827 13.8477 7.22038 9.42326Z" fill="url(#paint2_linear_77_93)"/>
<path d="M28.3088 17.228C28.3576 17.3039 28.4059 17.3792 28.4537 17.4557L28.5123 17.55C28.6319 17.742 28.7492 17.9352 28.8648 18.1307L28.8843 18.1635L28.9154 18.2163L28.9435 18.2652L29.0263 18.4072L29.0321 18.4176L29.1442 18.6142L29.1476 18.62C29.2287 18.7632 29.3086 18.9069 29.3874 19.0518L29.3972 19.0702L29.4846 19.2323L29.4869 19.2364L29.5829 19.4169L29.6105 19.4698L29.664 19.5727L29.7295 19.6998L29.7928 19.8228C29.8572 19.9505 29.921 20.0781 29.9837 20.2058L29.9998 20.2374C30.113 20.4691 30.2229 20.7014 30.3304 20.9354L30.412 21.1142L30.4201 21.1321L30.4724 21.2482L30.5333 21.3856L30.5678 21.465L30.623 21.592L30.6627 21.6835L30.7461 21.8801L30.7518 21.8939L30.841 22.1078L30.8519 22.1337C30.9467 22.3648 31.0387 22.5959 31.1279 22.8288L31.1365 22.8501L31.2101 23.045L31.2147 23.0559L31.2572 23.1709C31.3044 23.2986 31.351 23.4262 31.397 23.5544L31.4148 23.6044C31.4654 23.7476 31.5154 23.8914 31.5637 24.0345L31.5792 24.0799C31.6246 24.2145 31.6683 24.349 31.712 24.4836L31.7333 24.5497L31.7385 24.5652L31.8075 24.7831L31.8104 24.7929L31.8742 25.0011L31.938 25.2155L31.9397 25.2201L31.9926 25.4012L32.0093 25.4599L32.0415 25.572C32.0777 25.7014 32.1134 25.8302 32.1479 25.9595L32.1737 26.0561L32.2238 26.247L32.2261 26.2562C32.287 26.4908 32.3445 26.7254 32.3991 26.9594L32.4043 26.9836L32.4101 27.0083C32.4814 27.3171 32.5469 27.6247 32.6073 27.9311L32.613 27.9616C32.7062 28.4383 32.7861 28.912 32.8522 29.3818L32.8534 29.3881C32.8741 29.533 32.893 29.6773 32.9109 29.8217L32.9183 29.8838L32.9425 30.0902V30.0907L32.9632 30.2816L32.9701 30.3449L32.985 30.4961L32.9908 30.557L32.9931 30.5818L33.0115 30.7893C31.3653 28.6694 29.3989 27.2084 27.0392 26.0653C28.9435 22.3004 28.6762 19.6176 28.3088 17.228Z" fill="url(#paint3_linear_77_93)"/>
<defs>
<linearGradient id="paint0_linear_77_93" x1="672.601" y1="5.90729" x2="672.601" y2="2492.79" gradientUnits="userSpaceOnUse">
<stop stop-color="#73B723"/>
<stop offset="1" stop-color="#D8EE61"/>
</linearGradient>
<linearGradient id="paint1_linear_77_93" x1="1128.82" y1="500.665" x2="-108.228" y2="1425.54" gradientUnits="userSpaceOnUse">
<stop stop-color="#98C9EA"/>
<stop offset="0.688649" stop-color="#026FB2"/>
<stop offset="1" stop-color="#086EB6"/>
</linearGradient>
<linearGradient id="paint2_linear_77_93" x1="7.18256" y1="121.647" x2="1608.11" y2="1558.23" gradientUnits="userSpaceOnUse">
<stop stop-color="#D73721"/>
<stop offset="1" stop-color="#F7D768"/>
</linearGradient>
<linearGradient id="paint3_linear_77_93" x1="211.945" y1="437.534" x2="736.734" y2="647.707" gradientUnits="userSpaceOnUse">
<stop stop-color="#D4C883"/>
<stop offset="1" stop-color="#A1D1A7"/>
</linearGradient>
</defs>
</svg>
